<?xml version="1.0" encoding="UTF-8" standalone="no"?>
<!DOCTYPE svg PUBLIC "-//W3C//DTD SVG 1.1//EN" "http://www.w3.org/Graphics/SVG/1.1/DTD/svg11.dtd">
<svg width="100%" height="100%" viewBox="0 0 512 512" version="1.1" xmlns="http://www.w3.org/2000/svg" xmlns:xlink="http://www.w3.org/1999/xlink" xml:space="preserve" xmlns:serif="http://www.serif.com/" style="fill-rule:evenodd;clip-rule:evenodd;stroke-linejoin:round;stroke-miterlimit:2;">
    <g>
        <g>
            <g>
                <path d="M255.996,106.667C220.711,106.667 191.996,135.382 191.996,170.667C191.996,193.11 203.665,213.526 223.228,225.28C230.46,229.632 234.428,237.824 233.383,246.208L216.166,384L295.825,384L278.609,246.208C277.564,237.824 281.532,229.632 288.764,225.28C308.327,213.525 319.996,193.109 319.996,170.667C319.996,135.381 291.281,106.667 255.996,106.667Z" style="fill:white;fill-rule:nonzero;"/>
                <path d="M256,0C114.837,0 0,114.837 0,256C0,397.163 114.837,512 256,512C397.163,512 512,397.163 512,256C512,114.837 397.163,0 256,0ZM341.163,402.688C341.931,408.768 340.032,414.869 336,419.456C331.925,424.043 326.123,426.667 320,426.667L192,426.667C185.877,426.667 180.053,424.043 176,419.456C171.947,414.869 170.048,408.768 170.837,402.688L189.461,253.696C164.096,233.557 149.333,203.435 149.333,170.667C149.333,111.851 197.184,64 256,64C314.816,64 362.667,111.851 362.667,170.667C362.667,203.435 347.883,233.558 322.539,253.696L341.163,402.688Z" style="fill:white;fill-rule:nonzero;"/>
            </g>
        </g>
    </g>
</svg>
