<?xml version="1.0" encoding="UTF-8" standalone="no"?>
<!DOCTYPE svg PUBLIC "-//W3C//DTD SVG 1.1//EN" "http://www.w3.org/Graphics/SVG/1.1/DTD/svg11.dtd">
<svg width="100%" height="100%" viewBox="0 0 459 459" version="1.1" xmlns="http://www.w3.org/2000/svg" xmlns:xlink="http://www.w3.org/1999/xlink" xml:space="preserve" xmlns:serif="http://www.serif.com/" style="fill-rule:evenodd;clip-rule:evenodd;stroke-linejoin:round;stroke-miterlimit:2;">
    <g>
        <g>
            <path d="M339.588,314.529C325.373,314.529 312.132,318.662 300.967,325.768L188.285,247.098C190.094,240.783 191.083,234.122 191.083,227.227C191.083,220.331 190.094,213.67 188.285,207.356L297.925,130.809C309.689,139.165 324.058,144.095 339.587,144.095C379.377,144.095 411.634,111.838 411.634,72.048C411.634,32.258 379.378,0 339.588,0C299.798,0 267.541,32.257 267.541,72.047C267.541,77.302 268.119,82.42 269.187,87.355L156.763,165.846C145.789,159.087 132.871,155.18 119.036,155.18C79.246,155.18 46.989,187.437 46.989,227.227C46.989,267.017 79.245,299.274 119.036,299.274C132.87,299.274 145.789,295.367 156.763,288.608L270.055,367.705C268.426,373.722 267.541,380.045 267.541,386.577C267.541,426.367 299.798,458.624 339.588,458.624C379.378,458.624 411.635,426.367 411.635,386.577C411.635,346.787 379.378,314.529 339.588,314.529Z" style="fill:white;fill-rule:nonzero;"/>
        </g>
    </g>
</svg>
