<svg xmlns="http://www.w3.org/2000/svg" height="48" viewBox="0 -960 960 960" width="48"><path d="M444.5-85q-29.727 0-56.864-11.75Q360.5-108.5 342.5-132L128-405.5l22-23.5q13-14 32-17.5t36.5 5l99 51v-358.685q0-11.596 8.425-19.956 8.426-8.359 20.5-8.359 12.075 0 20.325 8.473t8.25 20.238V-298.5L225-375l164 207.5q10 13 24.56 19 14.56 6 30.94 6h202q38.031 0 64.516-26.441Q737.5-195.381 737.5-234v-168.5q0-25-17.037-42-17.038-17-41.463-17H452.5V-519h226.146q48.023 0 82.188 33.979Q795-451.042 795-402.5V-234q0 62.5-43.25 105.75T646.5-85h-202ZM204.896-667.5q-10.47-17.754-16.183-38.442Q183-726.63 183-748.928q0-68.546 47.761-116.059Q278.522-912.5 346.286-912.5q67.764 0 115.739 47.751Q510-816.998 510-748.638q0 22.237-5.963 42.845T488-667.5L438-696q6.5-11.5 10.5-25t4-28.47q0-44.03-30.985-74.78Q390.529-855 346.265-855 302-855 271.25-824.25t-30.75 75.489q0 14.261 3.75 27.761T255-696l-50.104 28.5ZM481.5-331Z"/></svg>