<?xml version="1.0" encoding="UTF-8" standalone="no"?>
<!DOCTYPE svg PUBLIC "-//W3C//DTD SVG 1.1//EN" "http://www.w3.org/Graphics/SVG/1.1/DTD/svg11.dtd">
<svg width="100%" height="100%" viewBox="0 0 906 216" version="1.1" xmlns="http://www.w3.org/2000/svg" xmlns:xlink="http://www.w3.org/1999/xlink" xml:space="preserve" xmlns:serif="http://www.serif.com/" style="fill-rule:evenodd;clip-rule:evenodd;stroke-linejoin:round;stroke-miterlimit:2;">
    <g transform="matrix(1,0,0,1,-237.792,-1356.74)">
        <g transform="matrix(4.16667,0,0,4.16667,0,0)">
            <g transform="matrix(1,0,0,1,142.002,367.068)">
                <text x="0px" y="0px" style="font-family:'HelveticaNeue', 'Helvetica Neue';font-size:10.128px;fill:white;">Facultat de Ciències</text>
            </g>
            <g transform="matrix(1,0,0,1,142.002,377.196)">
                <text x="0px" y="0px" style="font-family:'HelveticaNeue', 'Helvetica Neue';font-size:10.128px;fill:white;">de la Comunicació</text>
            </g>
        </g>
        <g transform="matrix(4.16667,0,0,4.16667,625.721,1375.43)">
            <g>
                <path d="M0,2.016C0,4.495 -1.464,5.702 -3.916,5.702C-6.381,5.702 -7.821,4.508 -7.821,2.016L-7.821,-3.686L-5.805,-3.686L-5.805,2.016C-5.805,3.019 -5.547,4.007 -3.916,4.007C-2.479,4.007 -2.017,3.377 -2.017,2.016L-2.017,-3.686L0,-3.686L0,2.016Z" style="fill:white;fill-rule:nonzero;"/>
            </g>
        </g>
        <g transform="matrix(4.16667,0,0,4.16667,632.13,1397.53)">
            <g>
                <path d="M0,-6.459L1.734,-6.459L1.734,-5.535L1.771,-5.535C2.234,-6.28 3.03,-6.639 3.8,-6.639C5.74,-6.639 6.227,-5.548 6.227,-3.904L6.227,0.18L4.404,0.18L4.404,-3.57C4.404,-4.662 4.083,-5.202 3.236,-5.202C2.247,-5.202 1.824,-4.649 1.824,-3.301L1.824,0.18L0,0.18L0,-6.459Z" style="fill:white;fill-rule:nonzero;"/>
            </g>
        </g>
        <g transform="matrix(4.16667,0,0,4.16667,0,278.025)">
            <g>
                <path d="M159.502,262.223L161.325,262.223L161.325,268.862L159.502,268.862L159.502,262.223ZM161.326,261.196L159.503,261.196L159.503,259.692L161.326,259.692L161.326,261.196Z" style="fill:white;fill-rule:nonzero;"/>
            </g>
        </g>
        <g transform="matrix(4.16667,0,0,4.16667,693.746,1370.62)">
            <g>
                <path d="M0,6.639L-2.028,6.639L-4.301,0L-2.388,0L-0.988,4.533L-0.963,4.533L0.437,0L2.248,0L0,6.639Z" style="fill:white;fill-rule:nonzero;"/>
            </g>
        </g>
        <g transform="matrix(4.16667,0,0,4.16667,723.805,1387.42)">
            <g>
                <path d="M0,-1.425C-0.167,-2.351 -0.565,-2.838 -1.451,-2.838C-2.607,-2.838 -2.941,-1.94 -2.966,-1.425L0,-1.425ZM-2.966,-0.271C-2.916,0.886 -2.35,1.413 -1.337,1.413C-0.604,1.413 -0.013,0.963 0.102,0.552L1.707,0.552C1.194,2.119 0.102,2.787 -1.401,2.787C-3.493,2.787 -4.79,1.347 -4.79,-0.708C-4.79,-2.697 -3.417,-4.212 -1.401,-4.212C0.86,-4.212 1.952,-2.313 1.824,-0.271L-2.966,-0.271Z" style="fill:white;fill-rule:nonzero;"/>
            </g>
        </g>
        <g transform="matrix(4.16667,0,0,4.16667,735.884,1397.53)">
            <g>
                <path d="M0,-6.459L1.733,-6.459L1.733,-5.227L1.759,-5.227C2.092,-6.063 2.992,-6.639 3.877,-6.639C4.006,-6.639 4.16,-6.613 4.275,-6.575L4.275,-4.88C4.109,-4.919 3.839,-4.944 3.62,-4.944C2.286,-4.944 1.824,-3.98 1.824,-2.813L1.824,0.18L0,0.18L0,-6.459Z" style="fill:white;fill-rule:nonzero;"/>
            </g>
        </g>
        <g transform="matrix(4.16667,0,0,4.16667,762.842,1379.61)">
            <g>
                <path d="M0,2.323C0.013,3.119 0.681,3.439 1.399,3.439C1.925,3.439 2.594,3.235 2.594,2.592C2.594,2.041 1.836,1.848 0.525,1.565C-0.527,1.335 -1.58,0.963 -1.58,-0.206C-1.58,-1.903 -0.116,-2.338 1.311,-2.338C2.76,-2.338 4.097,-1.85 4.237,-0.219L2.503,-0.219C2.452,-0.926 1.913,-1.119 1.257,-1.119C0.847,-1.119 0.244,-1.041 0.244,-0.503C0.244,0.152 1.272,0.242 2.31,0.485C3.377,0.73 4.417,1.117 4.417,2.348C4.417,4.095 2.901,4.661 1.386,4.661C-0.155,4.661 -1.657,4.081 -1.733,2.323L0,2.323Z" style="fill:white;fill-rule:nonzero;"/>
            </g>
        </g>
        <g transform="matrix(4.16667,0,0,4.16667,0,278.025)">
            <g>
                <path d="M188.678,262.223L190.501,262.223L190.501,268.862L188.678,268.862L188.678,262.223ZM190.501,261.196L188.678,261.196L188.678,259.692L190.501,259.692L190.501,261.196Z" style="fill:white;fill-rule:nonzero;"/>
            </g>
        </g>
        <g transform="matrix(4.16667,0,0,4.16667,810.442,1390.31)">
            <g>
                <path d="M0,-4.724L1.335,-4.724L1.335,-3.504L0,-3.504L0,-0.217C0,0.399 0.154,0.553 0.77,0.553C0.963,0.553 1.143,0.541 1.335,0.502L1.335,1.927C1.028,1.978 0.628,1.991 0.271,1.991C-0.848,1.991 -1.825,1.733 -1.825,0.412L-1.825,-3.504L-2.929,-3.504L-2.929,-4.724L-1.825,-4.724L-1.825,-6.715L0,-6.715L0,-4.724Z" style="fill:white;fill-rule:nonzero;"/>
            </g>
        </g>
        <g transform="matrix(4.16667,0,0,4.16667,838.205,1384.16)">
            <g>
                <path d="M0,0.141C-0.308,0.412 -0.95,0.422 -1.515,0.525C-2.081,0.64 -2.595,0.832 -2.595,1.5C-2.595,2.183 -2.068,2.348 -1.478,2.348C-0.052,2.348 0,1.218 0,0.82L0,0.141ZM-4.211,-1.208C-4.11,-2.916 -2.582,-3.429 -1.092,-3.429C0.231,-3.429 1.823,-3.133 1.823,-1.541L1.823,1.912C1.823,2.516 1.886,3.12 2.054,3.389L0.205,3.389C0.14,3.184 0.09,2.964 0.076,2.746C-0.502,3.35 -1.349,3.57 -2.156,3.57C-3.416,3.57 -4.418,2.939 -4.418,1.578C-4.418,0.075 -3.289,-0.284 -2.156,-0.437C-1.041,-0.606 0,-0.566 0,-1.31C0,-2.095 -0.541,-2.211 -1.181,-2.211C-1.875,-2.211 -2.325,-1.927 -2.39,-1.208L-4.211,-1.208Z" style="fill:white;fill-rule:nonzero;"/>
            </g>
        </g>
        <g transform="matrix(4.16667,0,0,4.16667,861.034,1390.31)">
            <g>
                <path d="M0,-4.724L1.337,-4.724L1.337,-3.504L0,-3.504L0,-0.217C0,0.399 0.156,0.553 0.771,0.553C0.963,0.553 1.143,0.541 1.337,0.502L1.337,1.927C1.028,1.978 0.629,1.991 0.27,1.991C-0.847,1.991 -1.823,1.733 -1.823,0.412L-1.823,-3.504L-2.927,-3.504L-2.927,-4.724L-1.823,-4.724L-1.823,-6.715L0,-6.715L0,-4.724Z" style="fill:white;fill-rule:nonzero;"/>
            </g>
        </g>
        <g transform="matrix(4.16667,0,0,4.16667,895.267,1374.85)">
            <g>
                <path d="M0,2.08L2.375,2.08L1.219,-1.283L1.194,-1.283L0,2.08ZM0.192,-3.545L2.26,-3.545L5.688,5.625L3.595,5.625L2.903,3.583L-0.528,3.583L-1.246,5.625L-3.289,5.625L0.192,-3.545Z" style="fill:white;fill-rule:nonzero;"/>
            </g>
        </g>
        <g transform="matrix(4.16667,0,0,4.16667,947.151,1371.38)">
            <g>
                <path d="M0,6.458L-1.733,6.458L-1.733,5.533L-1.771,5.533C-2.234,6.276 -3.03,6.639 -3.802,6.639C-5.74,6.639 -6.228,5.547 -6.228,3.901L-6.228,-0.181L-4.405,-0.181L-4.405,3.568C-4.405,4.661 -4.085,5.199 -3.237,5.199C-2.249,5.199 -1.824,4.646 -1.824,3.299L-1.824,-0.181L0,-0.181L0,6.458Z" style="fill:white;fill-rule:nonzero;"/>
            </g>
        </g>
        <g transform="matrix(4.16667,0,0,4.16667,963.884,1390.31)">
            <g>
                <path d="M0,-4.724L1.337,-4.724L1.337,-3.504L0,-3.504L0,-0.217C0,0.399 0.155,0.553 0.771,0.553C0.963,0.553 1.143,0.541 1.337,0.502L1.337,1.927C1.029,1.978 0.629,1.991 0.27,1.991C-0.847,1.991 -1.824,1.733 -1.824,0.412L-1.824,-3.504L-2.929,-3.504L-2.929,-4.724L-1.824,-4.724L-1.824,-6.715L0,-6.715L0,-4.724Z" style="fill:white;fill-rule:nonzero;"/>
            </g>
        </g>
        <g transform="matrix(4.16667,0,0,4.16667,987.309,1365.33)">
            <g>
                <path d="M0,6.716C1.245,6.716 1.618,5.65 1.618,4.595C1.618,3.53 1.245,2.465 0,2.465C-1.233,2.465 -1.606,3.53 -1.606,4.595C-1.606,5.65 -1.233,6.716 0,6.716M-2.272,-1.374L-0.257,-1.374L0.977,0.448L-0.295,0.448L-2.272,-1.374ZM0,1.091C2.093,1.091 3.442,2.478 3.442,4.595C3.442,6.703 2.093,8.09 0,8.09C-2.08,8.09 -3.429,6.703 -3.429,4.595C-3.429,2.478 -2.08,1.091 0,1.091" style="fill:white;fill-rule:nonzero;"/>
            </g>
        </g>
        <g transform="matrix(4.16667,0,0,4.16667,1006.03,1397.53)">
            <g>
                <path d="M0,-6.459L1.733,-6.459L1.733,-5.535L1.771,-5.535C2.232,-6.28 3.029,-6.639 3.8,-6.639C5.739,-6.639 6.227,-5.548 6.227,-3.904L6.227,0.18L4.403,0.18L4.403,-3.57C4.403,-4.662 4.082,-5.202 3.235,-5.202C2.246,-5.202 1.823,-4.649 1.823,-3.301L1.823,0.18L0,0.18L0,-6.459Z" style="fill:white;fill-rule:nonzero;"/>
            </g>
        </g>
        <g transform="matrix(4.16667,0,0,4.16667,1050.64,1375.6)">
            <g>
                <path d="M0,4.251C1.246,4.251 1.616,3.185 1.616,2.13C1.616,1.065 1.246,-0 0,-0C-1.233,-0 -1.605,1.065 -1.605,2.13C-1.605,3.185 -1.233,4.251 0,4.251M0,-1.374C2.092,-1.374 3.441,0.013 3.441,2.13C3.441,4.238 2.092,5.625 0,5.625C-2.081,5.625 -3.429,4.238 -3.429,2.13C-3.429,0.013 -2.081,-1.374 0,-1.374" style="fill:white;fill-rule:nonzero;"/>
            </g>
        </g>
        <g transform="matrix(4.16667,0,0,4.16667,1069.56,1397.53)">
            <g>
                <path d="M0,-6.459L1.72,-6.459L1.72,-5.56L1.746,-5.56C2.22,-6.241 2.915,-6.639 3.775,-6.639C4.61,-6.639 5.354,-6.331 5.713,-5.535C6.099,-6.113 6.791,-6.639 7.717,-6.639C9.13,-6.639 10.143,-5.985 10.143,-4.264L10.143,0.18L8.321,0.18L8.321,-3.583C8.321,-4.471 8.242,-5.202 7.204,-5.202C6.177,-5.202 5.982,-4.354 5.982,-3.519L5.982,0.18L4.16,0.18L4.16,-3.545C4.16,-4.313 4.212,-5.202 3.056,-5.202C2.696,-5.202 1.823,-4.969 1.823,-3.673L1.823,0.18L0,0.18L0,-6.459Z" style="fill:white;fill-rule:nonzero;"/>
            </g>
        </g>
        <g transform="matrix(4.16667,0,0,4.16667,1134.5,1384.16)">
            <g>
                <path d="M0,0.141C-0.308,0.412 -0.952,0.422 -1.515,0.525C-2.081,0.64 -2.596,0.832 -2.596,1.5C-2.596,2.183 -2.068,2.348 -1.476,2.348C-0.052,2.348 0,1.218 0,0.82L0,0.141ZM-4.211,-1.208C-4.109,-2.916 -2.582,-3.429 -1.091,-3.429C0.231,-3.429 1.823,-3.133 1.823,-1.541L1.823,1.912C1.823,2.516 1.886,3.12 2.054,3.389L0.204,3.389C0.14,3.184 0.09,2.964 0.075,2.746C-0.5,3.35 -1.35,3.57 -2.158,3.57C-3.417,3.57 -4.417,2.939 -4.417,1.578C-4.417,0.075 -3.287,-0.284 -2.158,-0.437C-1.041,-0.606 0,-0.566 0,-1.31C0,-2.095 -0.541,-2.211 -1.181,-2.211C-1.875,-2.211 -2.326,-1.927 -2.391,-1.208L-4.211,-1.208Z" style="fill:white;fill-rule:nonzero;"/>
            </g>
        </g>
        <g transform="matrix(4.16667,0,0,4.16667,605.605,1447.02)">
            <g>
                <path d="M0,-1.899C-1.196,-1.899 -1.606,-0.873 -1.606,0.218C-1.606,1.259 -1.13,2.35 0,2.35C1.207,2.35 1.565,1.298 1.565,0.205C1.565,-0.873 1.181,-1.899 0,-1.899M1.591,2.698L1.565,2.698C1.144,3.417 0.398,3.726 -0.45,3.726C-2.453,3.726 -3.428,2.004 -3.428,0.168C-3.428,-1.617 -2.439,-3.275 -0.489,-3.275C0.296,-3.275 1.065,-2.94 1.49,-2.285L1.478,-2.285L1.503,-2.285L1.503,-5.625L3.326,-5.625L3.326,3.545L1.591,3.545L1.591,2.698Z" style="fill:white;fill-rule:nonzero;"/>
            </g>
        </g>
        <g transform="matrix(4.16667,0,0,4.16667,644.33,1450.93)">
            <g>
                <path d="M0,-1.423C-0.167,-2.349 -0.564,-2.836 -1.451,-2.836C-2.606,-2.836 -2.94,-1.938 -2.967,-1.423L0,-1.423ZM-2.967,-0.269C-2.915,0.888 -2.351,1.413 -1.337,1.413C-0.604,1.413 -0.013,0.965 0.103,0.554L1.707,0.554C1.194,2.12 0.103,2.789 -1.4,2.789C-3.493,2.789 -4.79,1.349 -4.79,-0.706C-4.79,-2.696 -3.417,-4.212 -1.4,-4.212C0.86,-4.212 1.951,-2.311 1.824,-0.269L-2.967,-0.269Z" style="fill:white;fill-rule:nonzero;"/>
            </g>
        </g>
        <g transform="matrix(4.16667,0,0,4.16667,677.001,1430.12)">
            <g>
                <path d="M0,6.034L2.159,6.034C2.954,6.034 3.647,5.778 3.647,4.828C3.647,3.891 3.056,3.517 2.196,3.517L0,3.517L0,6.034ZM0,2.143L2.042,2.143C2.748,2.143 3.274,1.823 3.274,1.053C3.274,0.18 2.606,0.001 1.888,0.001L0,0.001L0,2.143ZM-2.016,-1.568L2.298,-1.568C4.045,-1.568 5.227,-1.002 5.227,0.705C5.227,1.605 4.777,2.233 3.981,2.619C5.098,2.941 5.664,3.802 5.664,4.943C5.664,6.806 4.083,7.602 2.428,7.602L-2.016,7.602L-2.016,-1.568Z" style="fill:white;fill-rule:nonzero;"/>
            </g>
        </g>
        <g transform="matrix(4.16667,0,0,4.16667,722.951,1447.68)">
            <g>
                <path d="M0,0.139C-0.309,0.41 -0.951,0.422 -1.516,0.525C-2.08,0.64 -2.595,0.832 -2.595,1.5C-2.595,2.183 -2.068,2.348 -1.478,2.348C-0.051,2.348 0,1.218 0,0.82L0,0.139ZM-4.212,-1.21C-4.11,-2.917 -2.581,-3.431 -1.092,-3.431C0.23,-3.431 1.822,-3.134 1.822,-1.543L1.822,1.912C1.822,2.516 1.887,3.118 2.054,3.389L0.205,3.389C0.14,3.184 0.089,2.964 0.076,2.746C-0.501,3.35 -1.349,3.57 -2.158,3.57C-3.416,3.57 -4.418,2.939 -4.418,1.577C-4.418,0.075 -3.288,-0.284 -2.158,-0.437C-1.042,-0.606 0,-0.567 0,-1.312C0,-2.095 -0.541,-2.211 -1.182,-2.211C-1.875,-2.211 -2.326,-1.927 -2.389,-1.21L-4.212,-1.21Z" style="fill:white;fill-rule:nonzero;"/>
            </g>
        </g>
        <g transform="matrix(4.16667,0,0,4.16667,736.955,1461.04)">
            <g>
                <path d="M0,-6.459L1.734,-6.459L1.734,-5.226L1.759,-5.226C2.094,-6.062 2.993,-6.64 3.878,-6.64C4.007,-6.64 4.161,-6.612 4.277,-6.575L4.277,-4.879C4.109,-4.918 3.84,-4.943 3.621,-4.943C2.286,-4.943 1.824,-3.98 1.824,-2.812L1.824,0.181L0,0.181L0,-6.459Z" style="fill:white;fill-rule:nonzero;"/>
            </g>
        </g>
        <g transform="matrix(4.16667,0,0,4.16667,776.434,1452.06)">
            <g>
                <path d="M0,-1.965C-0.116,-2.709 -0.59,-3.107 -1.349,-3.107C-2.518,-3.107 -2.902,-1.926 -2.902,-0.949C-2.902,0.001 -2.53,1.142 -1.387,1.142C-0.54,1.142 -0.052,0.604 0.064,-0.206L1.823,-0.206C1.591,1.555 0.372,2.518 -1.374,2.518C-3.378,2.518 -4.726,1.104 -4.726,-0.887C-4.726,-2.952 -3.493,-4.483 -1.337,-4.483C0.232,-4.483 1.669,-3.659 1.784,-1.965L0,-1.965Z" style="fill:white;fill-rule:nonzero;"/>
            </g>
        </g>
        <g transform="matrix(4.16667,0,0,4.16667,807.184,1450.93)">
            <g>
                <path d="M0,-1.423C-0.167,-2.349 -0.564,-2.836 -1.452,-2.836C-2.605,-2.836 -2.94,-1.938 -2.966,-1.423L0,-1.423ZM-2.966,-0.269C-2.914,0.888 -2.35,1.413 -1.335,1.413C-0.604,1.413 -0.013,0.965 0.104,0.554L1.709,0.554C1.193,2.12 0.104,2.789 -1.399,2.789C-3.491,2.789 -4.789,1.349 -4.789,-0.706C-4.789,-2.696 -3.416,-4.212 -1.399,-4.212C0.859,-4.212 1.952,-2.311 1.824,-0.269L-2.966,-0.269Z" style="fill:white;fill-rule:nonzero;"/>
            </g>
        </g>
        <g transform="matrix(4.16667,0,0,4.16667,0,405.05)">
            <g>
                <rect x="196.675" y="244.449" width="1.824" height="9.17" style="fill:white;"/>
            </g>
        </g>
        <g transform="matrix(4.16667,0,0,4.16667,846.488,1439.11)">
            <g>
                <path d="M0,4.249C1.246,4.249 1.619,3.185 1.619,2.13C1.619,1.065 1.246,-0 0,-0C-1.231,-0 -1.604,1.065 -1.604,2.13C-1.604,3.185 -1.231,4.249 0,4.249M0,-1.376C2.094,-1.376 3.443,0.013 3.443,2.13C3.443,4.238 2.094,5.625 0,5.625C-2.08,5.625 -3.427,4.238 -3.427,2.13C-3.427,0.013 -2.08,-1.376 0,-1.376" style="fill:white;fill-rule:nonzero;"/>
            </g>
        </g>
        <g transform="matrix(4.16667,0,0,4.16667,865.742,1461.04)">
            <g>
                <path d="M0,-6.459L1.733,-6.459L1.733,-5.534L1.771,-5.534C2.233,-6.279 3.031,-6.64 3.8,-6.64C5.739,-6.64 6.229,-5.547 6.229,-3.904L6.229,0.181L4.403,0.181L4.403,-3.569C4.403,-4.661 4.083,-5.201 3.235,-5.201C2.245,-5.201 1.824,-4.648 1.824,-3.3L1.824,0.181L0,0.181L0,-6.459Z" style="fill:white;fill-rule:nonzero;"/>
            </g>
        </g>
        <g transform="matrix(4.16667,0,0,4.16667,914.951,1447.68)">
            <g>
                <path d="M0,0.139C-0.309,0.41 -0.951,0.422 -1.515,0.525C-2.079,0.64 -2.594,0.832 -2.594,1.5C-2.594,2.183 -2.066,2.348 -1.477,2.348C-0.051,2.348 0,1.218 0,0.82L0,0.139ZM-4.211,-1.21C-4.109,-2.917 -2.582,-3.431 -1.09,-3.431C0.231,-3.431 1.824,-3.134 1.824,-1.543L1.824,1.912C1.824,2.516 1.888,3.118 2.054,3.389L0.206,3.389C0.141,3.184 0.091,2.964 0.077,2.746C-0.5,3.35 -1.35,3.57 -2.156,3.57C-3.416,3.57 -4.417,2.939 -4.417,1.577C-4.417,0.075 -3.287,-0.284 -2.156,-0.437C-1.042,-0.606 0,-0.567 0,-1.312C0,-2.095 -0.541,-2.211 -1.181,-2.211C-1.876,-2.211 -2.325,-1.927 -2.388,-1.21L-4.211,-1.21Z" style="fill:white;fill-rule:nonzero;"/>
            </g>
        </g>
        <g transform="matrix(4.16667,0,0,4.16667,329.072,1464.55)">
            <g>
                <path d="M0,-25.716L-6.56,-25.716L-6.56,-10.33C-6.56,-6.825 -7.844,-5.355 -10.821,-5.355C-13.989,-5.355 -15.346,-6.863 -15.346,-10.368L-15.346,-25.716L-21.907,-25.716L-21.907,-10.821C-21.907,-7.767 -21.604,-6.108 -20.738,-4.524C-19.077,-1.471 -15.836,0 -10.933,0C-7.238,0 -4.675,-0.755 -2.79,-2.488C-1.658,-3.58 -0.867,-4.942 -0.414,-6.521C-0.113,-7.691 0,-8.786 0,-10.783L0,-25.716ZM38.866,-11.539L43.879,-11.539C46.557,-11.539 47.764,-10.634 47.764,-8.632C47.764,-6.673 46.594,-5.77 44.033,-5.77L38.866,-5.77L38.866,-11.539ZM38.866,-20.737L43.39,-20.737C45.765,-20.737 46.819,-19.984 46.819,-18.248C46.819,-16.703 45.652,-15.836 43.541,-15.873L38.866,-15.873L38.866,-20.737ZM32.304,-25.716L32.304,-0.605L45.161,-0.605C48.214,-0.605 50.214,-1.131 51.797,-2.451C53.53,-3.81 54.398,-5.73 54.398,-8.107C54.398,-11.124 53.041,-13.16 50.327,-14.177L49.913,-14.329C52.099,-15.458 53.192,-17.154 53.192,-19.419C53.192,-21.753 51.986,-23.75 49.949,-24.771C48.666,-25.411 46.972,-25.716 44.37,-25.716L32.304,-25.716Z" style="fill:white;fill-rule:nonzero;"/>
            </g>
        </g>
        <g transform="matrix(4.16667,0,0,4.16667,407.239,1455.5)">
            <g>
                <path d="M0,-21.515C0,-21.515 0.754,-14.416 0.593,-13.716C0.593,-13.716 0.429,-11.997 3.013,-5.81C5.593,0.376 3.925,-3.873 6.077,1.019L7.044,2.42L8.014,-5.327C8.173,-8.121 8.122,-12.696 8.122,-12.696C8.283,-12.803 8.872,-20.384 8.765,-20.976C8.659,-21.569 8.712,-23.611 8.712,-23.611C0.808,-23.935 -0.969,-23.29 -0.969,-23.29C-6.776,-23.667 -13.285,-23.667 -13.285,-23.667C-13.661,-22.321 -13.876,-20.331 -13.822,-19.687C-13.769,-19.04 -13.661,-18.073 -13.769,-16.409C-13.876,-14.738 -13.501,-9.899 -13.501,-9.899L-13.876,-10.003C-13.608,-5.434 -13.983,1.557 -13.983,1.557L-8.713,1.557C-8.445,1.236 -3.229,-11.457 -3.229,-11.457C-1.344,-15.328 0,-21.515 0,-21.515M-4.195,-8.285L0.644,-9.413L1.613,-8.499L1.077,-6.779L-4.195,-8.285Z" style="fill:white;fill-rule:nonzero;"/>
            </g>
        </g>
    </g>
</svg>
