<?xml version="1.0" encoding="UTF-8"?>
<svg id="Capa_1" data-name="Capa 1" xmlns="http://www.w3.org/2000/svg" viewBox="0 0 612.23 36.53">
  <defs>
    <style>
      .cls-1 {
        fill: #fff;
      }
    </style>
  </defs>
  <path class="cls-1" d="M23.63,21.38c0,6.83-2.6,8.58-7.79,8.58s-7.79-1.75-7.79-8.58V.45H0V22.49c0,9.22,5.3,14.04,15.84,14.04s15.79-4.87,15.79-14.04V.45h-8V21.38Z"/>
  <path class="cls-1" d="M99.54,17.51c4.03-.85,7.26-3.18,7.26-8.37,0-4.77-3.02-8.69-10.54-8.69h-19.66V35.68h19.29c7.52,0,11.39-3.66,11.39-9.59,0-5.62-3.34-7.89-7.74-8.58Zm-14.89-10.97h9.22c3.34,0,4.5,1.48,4.5,4.19,0,2.54-1.27,4.24-4.77,4.24h-8.95V6.54Zm9.43,23h-9.43v-9.17h8.95c3.87,0,5.3,1.8,5.3,4.61,0,2.6-1.22,4.56-4.82,4.56Z"/>
  <path class="cls-1" d="M48.11,.44l-14.03,35.24h7.92c.11-.3,.27-.73,.39-1.01,.64-1.55,1.62-2.85,2.81-3.97,1.95-1.84,4.34-2.62,6.81-2.82,1.67-.14,3.63-.17,5.31-.18h5.18s3.07,7.98,3.07,7.98h7.93L59.47,.44h-11.35Zm8.58,21.09c-.21,0-.41,0-.6,0-4.18,.04-7.61,1.02-10.92,5.86L53.79,6l6.25,15.53c-.1,0-3.35,0-3.35,0Z"/>
  <g>
    <path class="cls-1" d="M121.48,9.03c2.51,0,3.76-1.16,3.76-3.34V.45h-1.9V5.43c0,1.63-.62,2.04-1.85,2.04s-1.85-.42-1.85-2.04V.45h-1.92V5.69c0,2.19,1.26,3.34,3.77,3.34Z"/>
    <path class="cls-1" d="M128.5,5.97c0-1.5,.55-2.13,1.55-2.13,.77,0,1.2,.4,1.2,1.41v3.58h1.87v-3.87c0-1.65-.69-2.63-2.34-2.63-1.15,0-1.87,.58-2.27,1.44v-1.24h-1.87v6.3h1.87v-2.86Z"/>
    <rect class="cls-1" x="134.42" y=".45" width="2.03" height="1.25"/>
    <rect class="cls-1" x="134.51" y="2.53" width="1.87" height="6.3"/>
    <polygon class="cls-1" points="142.06 8.83 144.25 2.53 142.47 2.53 140.81 7.38 139.14 2.53 137.24 2.53 139.43 8.83 142.06 8.83"/>
    <path class="cls-1" d="M147.9,9.03c2.27,0,3.08-1.1,3.25-2.11h-1.79c-.18,.47-.6,.82-1.42,.82-.89,0-1.49-.39-1.6-1.59h4.8c.03-.14,.03-.32,.03-.5,0-1.78-.88-3.33-3.26-3.33s-3.39,1.51-3.39,3.34,.93,3.37,3.39,3.37Zm.03-5.45c.93,0,1.4,.48,1.46,1.44h-3.04c.15-1.07,.68-1.44,1.58-1.44Z"/>
    <path class="cls-1" d="M154.13,6.35c0-1.42,.43-2.11,1.68-2.11h.62v-1.81h-.42c-1.06,0-1.63,.55-1.93,1.45v-1.35h-1.82v6.3h1.87v-2.48Z"/>
    <path class="cls-1" d="M160.21,7.86c-.95,0-1.4-.48-1.45-1.08h-1.7c.04,1.2,.88,2.26,3.13,2.26s2.95-.86,2.95-2.09c0-1.12-.57-1.76-2.07-1.95l-1.32-.15c-.63-.08-.79-.33-.79-.64,0-.4,.33-.71,1.13-.71s1.17,.37,1.24,.88h1.73c-.11-1.39-1.26-2.05-2.96-2.05s-2.86,.66-2.86,2.05c0,1.06,.64,1.69,1.83,1.84l1.41,.18c.71,.09,.88,.37,.88,.74,0,.44-.29,.73-1.13,.73Z"/>
    <rect class="cls-1" x="164.22" y=".45" width="2.03" height="1.25"/>
    <rect class="cls-1" x="164.3" y="2.53" width="1.87" height="6.3"/>
    <path class="cls-1" d="M168.25,6.56c0,1.5,.53,2.27,2.32,2.27h1.18v-1.49h-1.64V3.94h1.82v-1.41h-1.82V1.03h-.95l-.77,1.49-1.3,.53v.89h1.15v2.62Z"/>
    <path class="cls-1" d="M177.23,7.48c0,.52,.04,.93,.1,1.35h1.63c-.06-.54-.1-1.05-.1-1.64v-2.72c0-1.34-.93-2.16-2.85-2.16s-3.03,.92-3.08,2.27h1.83c.03-.64,.43-.98,1.29-.98s1.1,.29,1.1,.73c0,.37-.2,.53-.78,.63l-1.49,.25c-1.63,.28-2.07,.93-2.07,1.94,0,1.13,.82,1.84,2.09,1.84s2.04-.64,2.33-1.51Zm-2.58-.52c0-.48,.26-.72,.93-.88l.53-.13c.39-.09,.71-.18,1.03-.4v.28c0,1.17-.63,1.89-1.61,1.89-.5,0-.88-.25-.88-.76Z"/>
    <path class="cls-1" d="M184.27,7.34h-1.64V3.94h1.82v-1.41h-1.82V1.03h-.95l-.77,1.49-1.3,.53v.89h1.15v2.62c0,1.5,.53,2.27,2.32,2.27h1.18v-1.49Z"/>
    <path class="cls-1" d="M119.93,20.54h3.76l.61,1.71h1.93l-2.95-8.38h-2.92l-2.95,8.38h1.93l.6-1.71Zm1.88-5.34l1.36,3.87h-2.72l1.36-3.87Z"/>
    <path class="cls-1" d="M131.57,18.81c0,1.42-.58,2.12-1.51,2.12-.79,0-1.24-.4-1.24-1.4v-3.58h-1.87v3.86c0,1.65,.73,2.65,2.38,2.65,1.13,0,1.84-.57,2.23-1.41v1.21h1.87v-6.3h-1.87v2.86Z"/>
    <path class="cls-1" d="M138.98,22.26v-1.49h-1.64v-3.4h1.82v-1.41h-1.82v-1.5h-.95l-.77,1.49-1.3,.53v.89h1.15v2.62c0,1.5,.53,2.27,2.32,2.27h1.18Z"/>
    <path class="cls-1" d="M152.56,22.26h1.87v-3.87c0-1.65-.69-2.63-2.34-2.63-1.15,0-1.87,.58-2.27,1.44v-1.24h-1.87v6.3h1.87v-2.86c0-1.5,.55-2.13,1.55-2.13,.77,0,1.2,.4,1.2,1.41v3.58Z"/>
    <path class="cls-1" d="M139.87,19.09c0,1.76,.98,3.37,3.49,3.37s3.49-1.61,3.49-3.37-.97-3.34-3.49-3.34-3.49,1.6-3.49,3.34Zm3.49-1.88c1.15,0,1.63,.49,1.63,1.89s-.48,1.89-1.63,1.89-1.61-.49-1.61-1.89,.48-1.89,1.61-1.89Z"/>
    <polygon class="cls-1" points="145.15 14.76 141.96 13.66 141.6 14.84 145 15.25 145.15 14.76"/>
    <path class="cls-1" d="M155.52,19.09c0,1.76,.98,3.37,3.49,3.37s3.49-1.61,3.49-3.37-.97-3.34-3.49-3.34-3.49,1.6-3.49,3.34Zm5.12,.01c0,1.4-.48,1.89-1.63,1.89s-1.61-.49-1.61-1.89,.48-1.89,1.61-1.89,1.63,.49,1.63,1.89Z"/>
    <path class="cls-1" d="M174.2,22.26v-3.87c0-1.65-.72-2.63-2.32-2.63-1.18,0-1.88,.59-2.26,1.46-.28-.93-.96-1.46-2.08-1.46s-1.78,.54-2.16,1.35v-1.15h-1.87v6.3h1.87v-2.86c0-1.5,.48-2.13,1.42-2.13,.76,0,1.13,.44,1.13,1.39v3.6h1.83v-2.86c0-1.5,.48-2.13,1.42-2.13,.76,0,1.13,.44,1.13,1.39v3.6h1.87Z"/>
    <path class="cls-1" d="M178.82,18.39l-1.49,.25c-1.63,.28-2.07,.93-2.07,1.94,0,1.13,.82,1.84,2.09,1.84s2.04-.64,2.33-1.51c0,.52,.04,.93,.1,1.35h1.63c-.06-.54-.1-1.05-.1-1.64v-2.72c0-1.34-.93-2.16-2.85-2.16s-3.03,.92-3.08,2.27h1.83c.03-.64,.43-.98,1.29-.98s1.1,.29,1.1,.73c0,.37-.2,.53-.78,.63Zm.78,.87c0,1.17-.63,1.89-1.61,1.89-.5,0-.88-.25-.88-.76s.26-.72,.93-.88l.53-.13c.39-.09,.71-.18,1.03-.4v.28Z"/>
    <path class="cls-1" d="M122.61,30.32c-.44-.72-1.17-1.15-2.26-1.15-2.05,0-2.9,1.55-2.9,3.34s.84,3.37,2.9,3.37c1.08,0,1.81-.42,2.26-1.13v.93h1.87v-8.82h-1.87v3.47Zm-1.68,4.1c-1.19,0-1.61-.59-1.61-1.89s.43-1.89,1.61-1.89,1.68,.6,1.68,1.89-.5,1.89-1.68,1.89Z"/>
    <path class="cls-1" d="M132.2,32.5c0-1.78-.88-3.33-3.26-3.33s-3.39,1.51-3.39,3.34,.93,3.37,3.39,3.37c2.27,0,3.08-1.1,3.25-2.1h-1.79c-.18,.47-.6,.82-1.42,.82-.89,0-1.49-.39-1.6-1.59h4.8c.03-.14,.03-.32,.03-.5Zm-4.81-.63c.15-1.07,.68-1.44,1.58-1.44s1.4,.48,1.46,1.44h-3.04Z"/>
    <path class="cls-1" d="M141.91,31.36c.96-.2,1.73-.76,1.73-1.99,0-1.13-.72-2.07-2.51-2.07h-4.68v8.38h4.59c1.79,0,2.71-.87,2.71-2.28,0-1.34-.79-1.88-1.84-2.04Zm-3.54-2.61h2.19c.79,0,1.07,.35,1.07,1,0,.61-.3,1.01-1.13,1.01h-2.13v-2Zm2.24,5.47h-2.24v-2.18h2.13c.92,0,1.26,.43,1.26,1.1,0,.62-.29,1.08-1.15,1.08Z"/>
    <path class="cls-1" d="M150.92,31.32c0-1.34-.93-2.16-2.85-2.16s-3.03,.92-3.08,2.27h1.83c.03-.64,.43-.98,1.29-.98s1.1,.29,1.1,.73c0,.37-.2,.53-.78,.63l-1.49,.25c-1.63,.28-2.07,.93-2.07,1.94,0,1.13,.82,1.84,2.09,1.84s2.04-.64,2.33-1.51c0,.52,.04,.93,.1,1.35h1.63c-.06-.54-.1-1.05-.1-1.64v-2.72Zm-1.71,1.36c0,1.17-.63,1.89-1.61,1.89-.5,0-.88-.25-.88-.76s.26-.72,.93-.88l.53-.13c.39-.09,.71-.18,1.03-.4v.28Z"/>
    <path class="cls-1" d="M154.28,30.73v-1.35h-1.82v6.3h1.87v-2.48c0-1.42,.43-2.1,1.68-2.1h.62v-1.82h-.42c-1.06,0-1.63,.55-1.93,1.45Z"/>
    <path class="cls-1" d="M160.56,34.42c-1.01,0-1.59-.47-1.59-1.89s.6-1.89,1.61-1.89,1.39,.52,1.45,1.3h1.82c-.05-1.55-1.12-2.76-3.3-2.76-2.45,0-3.45,1.59-3.45,3.35s1.03,3.35,3.49,3.35c2.22,0,3.26-1.32,3.3-2.8h-1.82c-.08,.76-.52,1.34-1.51,1.34Z"/>
    <rect class="cls-1" x="172.65" y="26.86" width="1.87" height="8.82"/>
    <path class="cls-1" d="M171.48,32.5c0-1.78-.88-3.33-3.26-3.33s-3.39,1.51-3.39,3.34,.93,3.37,3.39,3.37c2.27,0,3.08-1.1,3.25-2.1h-1.79c-.18,.47-.6,.82-1.42,.82-.89,0-1.49-.39-1.6-1.59h4.8c.03-.14,.03-.32,.03-.5Zm-4.82-.63c.15-1.07,.68-1.44,1.58-1.44s1.4,.48,1.46,1.44h-3.04Z"/>
    <path class="cls-1" d="M179.1,29.18c-2.51,0-3.49,1.6-3.49,3.34s.98,3.37,3.49,3.37,3.49-1.61,3.49-3.37-.97-3.34-3.49-3.34Zm0,5.24c-1.13,0-1.61-.49-1.61-1.89s.48-1.89,1.61-1.89,1.63,.49,1.63,1.89-.48,1.89-1.63,1.89Z"/>
    <path class="cls-1" d="M187.83,29.18c-1.15,0-1.87,.58-2.27,1.44v-1.24h-1.87v6.3h1.87v-2.86c0-1.5,.55-2.13,1.55-2.13,.77,0,1.2,.4,1.2,1.41v3.58h1.87v-3.87c0-1.65-.69-2.63-2.34-2.63Z"/>
    <path class="cls-1" d="M197.28,34.04v-2.72c0-1.34-.93-2.16-2.85-2.16s-3.03,.92-3.08,2.27h1.83c.03-.64,.43-.98,1.29-.98s1.1,.29,1.1,.73c0,.37-.2,.53-.78,.63l-1.49,.25c-1.63,.28-2.07,.93-2.07,1.94,0,1.13,.82,1.84,2.09,1.84s2.04-.64,2.33-1.51c0,.52,.04,.93,.1,1.35h1.63c-.06-.54-.1-1.05-.1-1.64Zm-1.71-1.36c0,1.17-.63,1.89-1.61,1.89-.5,0-.88-.25-.88-.76s.26-.72,.93-.88l.53-.13c.39-.09,.71-.18,1.03-.4v.28Z"/>
  </g>
  <g>
    <path class="cls-1" d="M225.44,1.96V3.99h4.2v1.43h-4.2v3.42h-1.92V.44h6.55V1.96h-4.63Z"/>
    <path class="cls-1" d="M230.71,7.16c0-1.01,.44-1.67,2.07-1.94l1.49-.25c.58-.1,.78-.27,.78-.63,0-.44-.25-.73-1.1-.73s-1.26,.34-1.29,.98h-1.83c.05-1.35,1.16-2.27,3.08-2.27s2.85,.82,2.85,2.16v2.73c0,.59,.04,1.1,.1,1.64h-1.63c-.06-.42-.1-.83-.1-1.35-.29,.87-1.05,1.51-2.33,1.51s-2.09-.71-2.09-1.84Zm4.34-1.33v-.28c-.33,.23-.64,.32-1.04,.4l-.53,.13c-.67,.16-.93,.4-.93,.88,0,.5,.38,.76,.88,.76,.98,0,1.62-.72,1.62-1.89Z"/>
    <path class="cls-1" d="M241.3,2.32c2.18,0,3.26,1.21,3.31,2.76h-1.82c-.06-.78-.49-1.3-1.45-1.3-1.01,0-1.62,.48-1.62,1.89s.58,1.89,1.59,1.89,1.44-.58,1.51-1.34h1.82c-.04,1.48-1.08,2.8-3.31,2.8-2.46,0-3.5-1.59-3.5-3.36s1.01-3.36,3.46-3.36Z"/>
    <path class="cls-1" d="M252.31,2.52v6.31h-1.87v-1.21c-.39,.85-1.1,1.41-2.23,1.41-1.65,0-2.38-1-2.38-2.65V2.52h1.87v3.58c0,1,.44,1.4,1.24,1.4,.93,0,1.51-.69,1.51-2.12V2.52h1.87Z"/>
    <path class="cls-1" d="M253.84,0h1.87V8.83h-1.87V0Z"/>
    <path class="cls-1" d="M257.9,6.56V3.94h-1.15v-.9l1.3-.53,.77-1.49h.95v1.5h1.82v1.41h-1.82v3.41h1.64v1.49h-1.19c-1.79,0-2.32-.77-2.32-2.27Z"/>
    <path class="cls-1" d="M262.4,7.16c0-1.01,.44-1.67,2.07-1.94l1.49-.25c.58-.1,.78-.27,.78-.63,0-.44-.25-.73-1.1-.73s-1.26,.34-1.29,.98h-1.83c.05-1.35,1.16-2.27,3.08-2.27s2.85,.82,2.85,2.16v2.73c0,.59,.04,1.1,.1,1.64h-1.63c-.06-.42-.1-.83-.1-1.35-.29,.87-1.05,1.51-2.33,1.51s-2.09-.71-2.09-1.84Zm4.34-1.33v-.28c-.33,.23-.64,.32-1.04,.4l-.53,.13c-.67,.16-.93,.4-.93,.88,0,.5,.38,.76,.88,.76,.98,0,1.62-.72,1.62-1.89Z"/>
    <path class="cls-1" d="M270.37,6.56V3.94h-1.15v-.9l1.3-.53,.77-1.49h.95v1.5h1.82v1.41h-1.82v3.41h1.64v1.49h-1.19c-1.79,0-2.32-.77-2.32-2.27Z"/>
    <path class="cls-1" d="M284.44,0V8.83h-1.87v-.93c-.44,.72-1.17,1.14-2.26,1.14-2.06,0-2.9-1.54-2.9-3.37s.85-3.34,2.9-3.34c1.08,0,1.82,.43,2.26,1.15V0h1.87Zm-1.87,5.68c0-1.29-.5-1.89-1.68-1.89s-1.62,.58-1.62,1.89,.43,1.89,1.62,1.89,1.68-.61,1.68-1.89Z"/>
    <path class="cls-1" d="M290.33,6.93h1.79c-.18,1.01-.98,2.11-3.26,2.11-2.46,0-3.39-1.59-3.39-3.37s1.06-3.34,3.39-3.34,3.27,1.55,3.27,3.33c0,.19,0,.37-.03,.5h-4.81c.11,1.2,.71,1.59,1.6,1.59,.82,0,1.25-.35,1.43-.82Zm-3.02-1.91h3.04c-.06-.96-.53-1.44-1.46-1.44s-1.43,.37-1.58,1.44Z"/>
    <path class="cls-1" d="M221.75,25.82c0-5.45,2.93-10.37,10.34-10.37,6.79,0,9.54,2.84,9.99,8.24h-4.62c-.27-2.9-1.66-4.56-5.3-4.56-3.97,0-5.69,2.28-5.69,6.7s1.6,6.64,5.54,6.64,5.28-1.69,5.51-4.77h4.65c-.42,5.69-3.14,8.48-10.1,8.48-7.41,0-10.31-4.8-10.31-10.34Z"/>
    <path class="cls-1" d="M244.3,15.95h4.77v2.93h-4.77v-2.93Zm.21,4.89h4.39v14.82h-4.39v-14.82Z"/>
    <path class="cls-1" d="M262.52,31.18h4.21c-.42,2.37-2.31,4.95-7.65,4.95-5.78,0-7.97-3.73-7.97-7.91s2.49-7.85,7.97-7.85,7.67,3.65,7.67,7.82c0,.44,0,.86-.06,1.19h-11.29c.27,2.82,1.66,3.73,3.76,3.73,1.93,0,2.93-.83,3.35-1.93Zm.27-12l-8-.95,.86-2.79,7.5,2.58-.36,1.16Zm-7.35,7.53h7.14c-.15-2.25-1.25-3.38-3.44-3.38s-3.35,.86-3.7,3.38Z"/>
    <path class="cls-1" d="M284.12,26.56v9.1h-4.39v-8.42c0-2.37-1.01-3.32-2.82-3.32-2.34,0-3.64,1.48-3.64,5.01v6.73h-4.39v-14.82h4.39v2.9c.95-2.02,2.64-3.38,5.33-3.38,3.88,0,5.51,2.31,5.51,6.19Z"/>
    <path class="cls-1" d="M294.23,20.36c5.13,0,7.65,2.84,7.76,6.49h-4.27c-.15-1.84-1.16-3.05-3.41-3.05-2.37,0-3.79,1.13-3.79,4.44s1.36,4.44,3.73,4.44,3.38-1.36,3.56-3.14h4.27c-.09,3.47-2.55,6.58-7.76,6.58-5.78,0-8.21-3.73-8.21-7.88s2.37-7.88,8.12-7.88Z"/>
    <path class="cls-1" d="M303.95,15.95h4.77v2.93h-4.77v-2.93Zm.21,4.89h4.39v14.82h-4.39v-14.82Z"/>
    <path class="cls-1" d="M322.17,31.18h4.21c-.42,2.37-2.31,4.95-7.65,4.95-5.78,0-7.97-3.73-7.97-7.91s2.49-7.85,7.97-7.85,7.67,3.65,7.67,7.82c0,.44,0,.86-.06,1.19h-11.29c.27,2.82,1.66,3.73,3.76,3.73,1.93,0,2.93-.83,3.35-1.93Zm-7.08-4.47h7.14c-.15-2.25-1.25-3.38-3.44-3.38s-3.35,.86-3.7,3.38Z"/>
    <path class="cls-1" d="M331.86,30.82c.12,1.42,1.19,2.55,3.41,2.55,1.99,0,2.67-.68,2.67-1.72,0-.89-.42-1.54-2.07-1.75l-3.32-.42c-2.79-.36-4.3-1.84-4.3-4.33,0-3.29,2.79-4.83,6.73-4.83s6.7,1.57,6.96,4.83h-4.06c-.15-1.22-1.07-2.07-2.9-2.07s-2.67,.71-2.67,1.66c0,.74,.39,1.33,1.87,1.51l3.11,.36c3.53,.44,4.86,1.96,4.86,4.59,0,2.9-1.84,4.92-6.93,4.92s-7.26-2.49-7.35-5.3h4Z"/>
    <path class="cls-1" d="M367.54,14.91v20.74h-4.39v-2.19c-1.04,1.69-2.76,2.67-5.3,2.67-4.83,0-6.82-3.62-6.82-7.91s1.99-7.85,6.82-7.85c2.55,0,4.27,1.01,5.3,2.7V14.91h4.39Zm-4.39,13.33c0-3.02-1.18-4.44-3.94-4.44s-3.79,1.36-3.79,4.44,1.01,4.44,3.79,4.44,3.94-1.42,3.94-4.44Z"/>
    <path class="cls-1" d="M380.93,31.18h4.21c-.42,2.37-2.31,4.95-7.65,4.95-5.78,0-7.97-3.73-7.97-7.91s2.49-7.85,7.97-7.85,7.67,3.65,7.67,7.82c0,.44,0,.86-.06,1.19h-11.29c.27,2.82,1.66,3.73,3.76,3.73,1.93,0,2.93-.83,3.35-1.93Zm-7.08-4.47h7.14c-.15-2.25-1.25-3.38-3.44-3.38s-3.35,.86-3.7,3.38Z"/>
    <path class="cls-1" d="M394.82,14.91h4.39v20.74h-4.39V14.91Z"/>
    <path class="cls-1" d="M401.76,31.71c0-2.37,1.04-3.91,4.86-4.56l3.5-.59c1.36-.24,1.84-.62,1.84-1.48,0-1.04-.59-1.72-2.58-1.72s-2.96,.8-3.02,2.31h-4.3c.12-3.17,2.73-5.33,7.23-5.33s6.7,1.93,6.7,5.07v6.4c0,1.39,.09,2.58,.24,3.85h-3.82c-.15-.98-.24-1.96-.24-3.17-.68,2.04-2.46,3.56-5.48,3.56s-4.92-1.66-4.92-4.33Zm10.19-3.11v-.65c-.77,.53-1.51,.74-2.43,.95l-1.24,.3c-1.57,.39-2.19,.95-2.19,2.07,0,1.19,.89,1.78,2.07,1.78,2.31,0,3.79-1.69,3.79-4.44Z"/>
    <path class="cls-1" d="M425.85,25.82c0-5.45,2.93-10.37,10.34-10.37,6.79,0,9.54,2.84,9.99,8.24h-4.62c-.27-2.9-1.66-4.56-5.3-4.56-3.97,0-5.69,2.28-5.69,6.7s1.6,6.64,5.54,6.64,5.28-1.69,5.51-4.77h4.65c-.41,5.69-3.14,8.48-10.1,8.48-7.41,0-10.31-4.8-10.31-10.34Z"/>
    <path class="cls-1" d="M447.86,28.22c0-4.09,2.31-7.85,8.21-7.85s8.21,3.79,8.21,7.85-2.28,7.91-8.21,7.91-8.21-3.76-8.21-7.91Zm8.21,4.47c2.7,0,3.82-1.16,3.82-4.44s-1.13-4.44-3.82-4.44-3.79,1.16-3.79,4.44,1.13,4.44,3.79,4.44Z"/>
    <path class="cls-1" d="M491.57,26.56v9.1h-4.39v-8.48c0-2.22-.89-3.26-2.67-3.26-2.22,0-3.35,1.48-3.35,5.01v6.73h-4.3v-8.48c0-2.22-.89-3.26-2.67-3.26-2.22,0-3.35,1.48-3.35,5.01v6.73h-4.39v-14.82h4.39v2.7c.89-1.9,2.49-3.17,5.07-3.17s4.24,1.24,4.89,3.44c.89-2.04,2.52-3.44,5.3-3.44,3.76,0,5.45,2.31,5.45,6.19Z"/>
    <path class="cls-1" d="M509.5,20.84v14.82h-4.39v-2.84c-.92,1.99-2.58,3.32-5.24,3.32-3.88,0-5.6-2.34-5.6-6.22v-9.07h4.38v8.42c0,2.34,1.04,3.29,2.9,3.29,2.19,0,3.56-1.63,3.56-4.98v-6.73h4.39Z"/>
    <path class="cls-1" d="M527.72,26.56v9.1h-4.39v-8.42c0-2.37-1.01-3.32-2.82-3.32-2.34,0-3.64,1.48-3.64,5.01v6.73h-4.39v-14.82h4.39v2.9c.95-2.02,2.64-3.38,5.33-3.38,3.88,0,5.51,2.31,5.51,6.19Z"/>
    <path class="cls-1" d="M530.36,15.95h4.77v2.93h-4.77v-2.93Zm.21,4.89h4.39v14.82h-4.39v-14.82Z"/>
    <path class="cls-1" d="M545.29,20.36c5.13,0,7.65,2.84,7.76,6.49h-4.27c-.15-1.84-1.16-3.05-3.41-3.05-2.37,0-3.79,1.13-3.79,4.44s1.36,4.44,3.73,4.44,3.38-1.36,3.56-3.14h4.27c-.09,3.47-2.55,6.58-7.76,6.58-5.78,0-8.21-3.73-8.21-7.88s2.37-7.88,8.12-7.88Z"/>
    <path class="cls-1" d="M554.86,31.71c0-2.37,1.04-3.91,4.86-4.56l3.5-.59c1.36-.24,1.84-.62,1.84-1.48,0-1.04-.59-1.72-2.58-1.72s-2.96,.8-3.02,2.31h-4.3c.12-3.17,2.73-5.33,7.23-5.33s6.7,1.93,6.7,5.07v6.4c0,1.39,.09,2.58,.24,3.85h-3.82c-.15-.98-.24-1.96-.24-3.17-.68,2.04-2.46,3.56-5.48,3.56s-4.92-1.66-4.92-4.33Zm10.19-3.11v-.65c-.77,.53-1.51,.74-2.43,.95l-1.24,.3c-1.57,.39-2.19,.95-2.19,2.07,0,1.19,.89,1.78,2.07,1.78,2.31,0,3.79-1.69,3.79-4.44Z"/>
    <path class="cls-1" d="M579.28,20.36c5.13,0,7.65,2.84,7.76,6.49h-4.27c-.15-1.84-1.16-3.05-3.41-3.05-2.37,0-3.79,1.13-3.79,4.44s1.36,4.44,3.73,4.44,3.38-1.36,3.56-3.14h4.27c-.09,3.47-2.55,6.58-7.76,6.58-5.78,0-8.21-3.73-8.21-7.88s2.37-7.88,8.12-7.88Z"/>
    <path class="cls-1" d="M589,15.95h4.77v2.93h-4.77v-2.93Zm.21,4.89h4.39v14.82h-4.39v-14.82Z"/>
    <path class="cls-1" d="M595.81,28.22c0-4.09,2.31-7.85,8.21-7.85s8.21,3.79,8.21,7.85-2.28,7.91-8.21,7.91-8.21-3.76-8.21-7.91Zm4.42-9.04l-.36-1.16,7.5-2.58,.86,2.79-8,.95Zm3.79,13.51c2.7,0,3.82-1.16,3.82-4.44s-1.13-4.44-3.82-4.44-3.79,1.16-3.79,4.44,1.13,4.44,3.79,4.44Z"/>
  </g>
</svg>