<?xml version="1.0" encoding="UTF-8" standalone="no"?>
<!DOCTYPE svg PUBLIC "-//W3C//DTD SVG 1.1//EN" "http://www.w3.org/Graphics/SVG/1.1/DTD/svg11.dtd">
<svg width="100%" height="100%" viewBox="0 0 478 478" version="1.1" xmlns="http://www.w3.org/2000/svg" xmlns:xlink="http://www.w3.org/1999/xlink" xml:space="preserve" xmlns:serif="http://www.serif.com/" style="fill-rule:evenodd;clip-rule:evenodd;stroke-linejoin:round;stroke-miterlimit:2;">
    <g>
        <g id="XMLID_22_">
            <path id="XMLID_24_" d="M394,196.1C394,184.2 384.3,174.5 372.4,174.5C360.5,174.5 350.8,184.2 350.8,196.1C350.8,257.8 300.6,307.9 239,307.9C177.4,307.9 127.2,257.7 127.2,196.1C127.2,184.2 117.5,174.5 105.6,174.5C93.7,174.5 84,184.2 84,196.1C84,274.3 142.1,339.1 217.4,349.6L217.4,434.8L161.8,434.8C149.9,434.8 140.2,444.5 140.2,456.4C140.2,468.3 149.9,478 161.8,478L316.3,478C328.2,478 337.9,468.3 337.9,456.4C337.9,444.5 328.2,434.8 316.3,434.8L260.7,434.8L260.7,349.6C335.9,339.1 394,274.2 394,196.1Z" style="fill:white;fill-rule:nonzero;"/>
            <path id="XMLID_23_" d="M239,0C192.6,0 155,37.6 155,84L155,194.7C155,241.1 192.6,278.7 239,278.7C285.4,278.7 323,241.1 323,194.7L323,84C323,37.6 285.4,0 239,0ZM239.1,55.9C224,55.9 211.7,68.2 211.7,83.3L211.7,83.9L211.5,183.8C211.5,190.7 205.9,196.2 199.1,196.2C192.2,196.2 186.7,190.6 186.7,183.8L186.7,83.2C186.7,54.3 210.2,30.8 239.1,30.8C244.461,30.8 249.037,34.181 250.812,38.925C251.321,40.287 251.6,41.761 251.6,43.3C251.6,50.3 246,55.9 239.1,55.9Z" style="fill:white;fill-rule:nonzero;"/>
        </g>
    </g>
</svg>
