<svg xmlns="http://www.w3.org/2000/svg" height="48" viewBox="0 -960 960 960" width="48"><path d="M142.5-85q-22.969 0-40.234-17.266Q85-119.531 85-142.5V-650q0-21.231 14.75-37.115Q114.5-703 134-711l489-197 18 48-358 143.5h534.5q22.969 0 40.234 17.266Q875-681.969 875-659v516.5q0 22.969-17.266 40.234Q840.469-85 817.5-85h-675Zm0-57.5h675V-451h-675v308.5Zm177.683-64q40.557 0 67.937-27.563 27.38-27.563 27.38-68.12t-27.563-67.937q-27.563-27.38-68.12-27.38t-67.937 27.563q-27.38 27.563-27.38 68.12t27.563 67.937q27.563 27.38 68.12 27.38ZM142.5-508.5h517V-568H717v59.5h100.5V-659h-675v150.5Zm0 366V-451v308.5Z"/></svg>