<?xml version="1.0" encoding="UTF-8" standalone="no"?>
<!DOCTYPE svg PUBLIC "-//W3C//DTD SVG 1.1//EN" "http://www.w3.org/Graphics/SVG/1.1/DTD/svg11.dtd">
<svg width="100%" height="100%" viewBox="0 0 1647 588" version="1.1" xmlns="http://www.w3.org/2000/svg" xmlns:xlink="http://www.w3.org/1999/xlink" xml:space="preserve" xmlns:serif="http://www.serif.com/" style="fill-rule:evenodd;clip-rule:evenodd;stroke-linejoin:round;stroke-miterlimit:2;">
    <g transform="matrix(1,0,0,1,-313.904,-2007.39)">
        <g transform="matrix(4.16667,0,0,4.16667,0,0)">
            <g transform="matrix(1,0,0,1,213.642,525.467)">
                <path d="M0,35.026C-4.617,35.026 -8.213,33.708 -10.785,31.069C-13.358,28.43 -14.644,24.637 -14.644,19.689L-14.644,0L-9.697,0L-9.697,19.492C-9.697,26.913 -6.448,30.623 0.05,30.623C3.216,30.623 5.64,29.709 7.322,27.878C9.004,26.047 9.846,23.253 9.846,19.492L9.846,0L14.645,0L14.645,19.689C14.645,24.671 13.358,28.471 10.786,31.093C8.213,33.715 4.618,35.026 0,35.026" style="fill:white;fill-rule:nonzero;"/>
            </g>
        </g>
        <g transform="matrix(4.16667,0,0,4.16667,0,0)">
            <g transform="matrix(1,0,0,1,258.02,538.082)">
                <path d="M0,9.4L-7.471,-7.57L-14.942,9.4L0,9.4ZM1.731,13.358L-16.673,13.358L-20.483,22.016L-25.579,22.016L-9.895,-12.616L-4.997,-12.616L10.735,22.016L5.541,22.016L1.731,13.358Z" style="fill:white;fill-rule:nonzero;"/>
            </g>
        </g>
        <g transform="matrix(4.16667,0,0,4.16667,0,0)">
            <g transform="matrix(1,0,0,1,290.227,529.475)">
                <path d="M0,26.614C2.804,26.614 4.915,26.153 6.333,25.229C7.751,24.305 8.46,22.854 8.46,20.876C8.46,17.016 5.64,15.088 0,15.088L-11.379,15.088L-11.379,26.615L0,26.615L0,26.614ZM-11.379,-0.002L-11.379,11.08L-1.237,11.08C1.303,11.08 3.257,10.609 4.626,9.67C5.995,8.729 6.679,7.352 6.679,5.539C6.679,3.724 5.995,2.347 4.626,1.407C3.257,0.468 1.303,-0.002 -1.237,-0.002L-11.379,-0.002ZM6.976,12.664C8.988,13.223 10.571,14.237 11.726,15.706C12.88,17.174 13.457,19.028 13.457,21.271C13.457,24.272 12.328,26.582 10.068,28.197C7.809,29.814 4.519,30.623 0.198,30.623L-16.326,30.623L-16.326,-4.009L-0.791,-4.009C3.167,-4.009 6.226,-3.219 8.386,-1.636C10.546,-0.052 11.627,2.141 11.627,4.945C11.627,6.76 11.206,8.326 10.365,9.645C9.524,10.965 8.395,11.97 6.976,12.664" style="fill:white;fill-rule:nonzero;"/>
            </g>
        </g>
        <g transform="matrix(4.16667,0,0,4.16667,0,0)">
            <g transform="matrix(1,0,0,1,347.158,557.098)">
                <path d="M0,-27.301C3.367,-27.301 6.042,-26.31 8.025,-24.325C10.01,-22.343 11,-19.367 11,-15.401L11,0L3.2,0L3.2,-14.2C3.2,-16.334 2.76,-17.926 1.875,-18.976C0.992,-20.026 -0.266,-20.551 -1.899,-20.551C-3.732,-20.551 -5.183,-19.959 -6.25,-18.776C-7.315,-17.593 -7.85,-15.834 -7.85,-13.5L-7.85,0L-15.649,0L-15.649,-14.2C-15.649,-18.435 -17.35,-20.551 -20.75,-20.551C-22.55,-20.551 -23.982,-19.959 -25.05,-18.776C-26.115,-17.593 -26.649,-15.834 -26.649,-13.5L-26.649,0L-34.449,0L-34.449,-26.901L-27,-26.901L-27,-23.801C-26,-24.935 -24.774,-25.8 -23.324,-26.401C-21.875,-27 -20.282,-27.3 -18.55,-27.3C-16.649,-27.3 -14.933,-26.925 -13.399,-26.175C-11.865,-25.425 -10.633,-24.334 -9.699,-22.901C-8.6,-24.3 -7.208,-25.385 -5.524,-26.151C-3.841,-26.917 -2,-27.301 0,-27.301" style="fill:white;fill-rule:nonzero;"/>
            </g>
        </g>
        <g transform="matrix(4.16667,0,0,4.16667,0,0)">
            <g transform="matrix(1,0,0,1,367.059,557.497)">
                <path d="M0,-37.95L8.4,-37.95L15.15,-30.75L9.05,-30.75L0,-37.95ZM10.8,-21.8C9.034,-21.8 7.55,-21.3 6.35,-20.3C5.15,-19.3 4.417,-17.933 4.15,-16.2L17.4,-16.2C17.134,-17.899 16.4,-19.259 15.2,-20.274C14,-21.292 12.534,-21.8 10.8,-21.8M24.75,-13.75C24.75,-13.649 24.7,-12.95 24.6,-11.649L4.25,-11.649C4.617,-9.983 5.484,-8.667 6.85,-7.7C8.217,-6.733 9.917,-6.25 11.95,-6.25C13.35,-6.25 14.592,-6.459 15.675,-6.875C16.759,-7.292 17.767,-7.95 18.7,-8.849L22.85,-4.349C20.317,-1.45 16.617,0 11.75,0C8.717,0 6.034,-0.592 3.7,-1.774C1.367,-2.959 -0.433,-4.599 -1.7,-6.7C-2.966,-8.8 -3.6,-11.183 -3.6,-13.849C-3.6,-16.483 -2.975,-18.858 -1.725,-20.974C-0.475,-23.092 1.242,-24.742 3.425,-25.925C5.609,-27.108 8.05,-27.7 10.75,-27.7C13.384,-27.7 15.767,-27.134 17.9,-26C20.034,-24.867 21.709,-23.242 22.925,-21.125C24.142,-19.009 24.75,-16.55 24.75,-13.75" style="fill:white;fill-rule:nonzero;"/>
            </g>
        </g>
        <g transform="matrix(4.16667,0,0,4.16667,0,0)">
            <g transform="matrix(1,0,0,1,409.908,526.396)">
                <path d="M0,24.702C1.968,24.702 3.601,24.026 4.9,22.677C6.2,21.327 6.851,19.517 6.851,17.252C6.851,14.984 6.2,13.177 4.9,11.827C3.601,10.476 1.968,9.802 0,9.802C-2,9.802 -3.649,10.476 -4.949,11.827C-6.25,13.177 -6.899,14.984 -6.899,17.252C-6.899,19.517 -6.25,21.327 -4.949,22.677C-3.649,24.026 -2,24.702 0,24.702M14.5,-6.399L14.5,30.702L7.051,30.702L7.051,27.601C5.117,29.934 2.317,31.101 -1.35,31.101C-3.883,31.101 -6.175,30.535 -8.225,29.401C-10.274,28.267 -11.883,26.651 -13.05,24.552C-14.216,22.452 -14.8,20.017 -14.8,17.252C-14.8,14.484 -14.216,12.052 -13.05,9.952C-11.883,7.851 -10.274,6.234 -8.225,5.101C-6.175,3.968 -3.883,3.401 -1.35,3.401C2.084,3.401 4.768,4.484 6.7,6.651L6.7,-6.399L14.5,-6.399Z" style="fill:white;fill-rule:nonzero;"/>
            </g>
        </g>
        <g transform="matrix(4.16667,0,0,4.16667,0,0)">
            <g transform="matrix(1,0,0,1,435.509,548.398)">
                <path d="M0,-21.95C-1.434,-21.95 -2.601,-22.367 -3.5,-23.2C-4.4,-24.034 -4.851,-25.067 -4.851,-26.3C-4.851,-27.534 -4.4,-28.567 -3.5,-29.4C-2.601,-30.234 -1.434,-30.65 0,-30.65C1.434,-30.65 2.6,-30.25 3.5,-29.45C4.399,-28.65 4.85,-27.65 4.85,-26.45C4.85,-25.15 4.399,-24.075 3.5,-23.225C2.6,-22.375 1.434,-21.95 0,-21.95M-3.9,-18.2L3.9,-18.2L3.9,8.7L-3.9,8.7L-3.9,-18.2Z" style="fill:white;fill-rule:nonzero;"/>
            </g>
        </g>
        <g transform="matrix(4.16667,0,0,4.16667,0,0)">
            <g transform="matrix(1,0,0,1,456.908,535.047)">
                <path d="M0,17.2C1.334,17.2 2.518,16.891 3.551,16.275C4.584,15.658 5.317,14.75 5.75,13.551L5.75,10.801L0.4,10.801C-2.8,10.801 -4.399,11.85 -4.399,13.95C-4.399,14.95 -4.008,15.741 -3.225,16.325C-2.44,16.908 -1.365,17.2 0,17.2M0.601,-5.25C4.768,-5.25 7.968,-4.259 10.2,-2.275C12.435,-0.292 13.551,2.7 13.551,6.7L13.551,22.051L6.25,22.051L6.25,18.7C4.784,21.2 2.051,22.45 -1.949,22.45C-4.016,22.45 -5.808,22.1 -7.324,21.4C-8.841,20.7 -10,19.733 -10.8,18.5C-11.6,17.266 -12,15.866 -12,14.301C-12,11.801 -11.058,9.833 -9.175,8.4C-7.291,6.967 -4.383,6.25 -0.449,6.25L5.75,6.25C5.75,4.551 5.234,3.241 4.2,2.325C3.167,1.408 1.617,0.95 -0.449,0.95C-1.883,0.95 -3.291,1.176 -4.675,1.625C-6.058,2.075 -7.232,2.683 -8.199,3.45L-11,-2C-9.532,-3.033 -7.774,-3.834 -5.725,-4.4C-3.675,-4.967 -1.565,-5.25 0.601,-5.25" style="fill:white;fill-rule:nonzero;"/>
            </g>
        </g>
        <g transform="matrix(4.16667,0,0,4.16667,0,0)">
            <g transform="matrix(-110.434,-51.4962,-51.4962,110.434,131.09,591.219)">
                <path d="M0.578,-0.532L0.578,-0.531C0.616,-0.514 0.647,-0.48 0.66,-0.441C0.674,-0.403 0.672,-0.359 0.655,-0.323L0.655,-0.322C0.638,-0.287 0.609,-0.259 0.573,-0.244C0.573,-0.244 0.573,-0.244 0.573,-0.244C0.573,-0.244 0.573,-0.244 0.573,-0.244L0.569,-0.242L0.569,-0.242C0.568,-0.242 0.568,-0.242 0.568,-0.242L0.295,-0.134C0.295,-0.134 0.276,-0.125 0.271,-0.113C0.265,-0.102 0.273,-0.084 0.273,-0.084L0.355,0.153C0.371,0.194 0.369,0.238 0.351,0.276L0.351,0.276C0.315,0.353 0.221,0.388 0.142,0.351L0.14,0.351L0.14,0.351C0.106,0.334 0.078,0.306 0.063,0.272L0.064,0.272C0.063,0.271 0.062,0.271 0.062,0.27L0.058,0.26C-0.015,0.068 0.013,0.147 -0.027,0.034C-0.062,-0.06 -0.091,-0.151 -0.111,-0.205C-0.122,-0.236 -0.127,-0.267 -0.114,-0.295C-0.101,-0.323 -0.074,-0.338 -0.043,-0.35C0.011,-0.371 0.447,-0.534 0.453,-0.536L0.457,-0.538C0.457,-0.538 0.458,-0.538 0.458,-0.538L0.458,-0.538C0.496,-0.551 0.54,-0.549 0.578,-0.532Z" style="fill:url(#_Linear1);fill-rule:nonzero;"/>
            </g>
        </g>
        <g transform="matrix(4.16667,0,0,4.16667,0,0)">
            <g transform="matrix(-72.833,-126.151,-126.151,72.833,207.084,593.72)">
                <path d="M0.789,-0.17L0.79,-0.169L0.79,-0.169C0.805,-0.142 0.811,-0.109 0.805,-0.078L0.804,-0.079C0.804,-0.078 0.804,-0.077 0.804,-0.076L0.802,-0.068C0.76,0.099 0.779,0.031 0.753,0.128C0.731,0.209 0.707,0.286 0.695,0.332C0.687,0.358 0.677,0.381 0.654,0.394L0.654,0.395C0.631,0.408 0.606,0.405 0.579,0.398C0.532,0.386 0.155,0.289 0.149,0.288L0.146,0.287C0.146,0.287 0.146,0.287 0.145,0.287L0.146,0.287C0.113,0.278 0.083,0.255 0.066,0.225L0.066,0.225C0.049,0.194 0.044,0.157 0.053,0.123C0.062,0.09 0.084,0.062 0.113,0.045L0.114,0.044C0.142,0.028 0.176,0.023 0.208,0.03C0.208,0.03 0.208,0.03 0.208,0.03C0.208,0.03 0.208,0.03 0.208,0.03L0.212,0.031L0.451,0.088C0.451,0.088 0.469,0.091 0.478,0.086C0.487,0.081 0.49,0.064 0.49,0.064L0.548,-0.138C0.556,-0.173 0.579,-0.202 0.609,-0.22L0.609,-0.22C0.671,-0.255 0.752,-0.234 0.789,-0.17Z" style="fill:url(#_Linear2);fill-rule:nonzero;"/>
            </g>
        </g>
        <g transform="matrix(4.16667,0,0,4.16667,0,0)">
            <g transform="matrix(55.2425,95.6828,95.6828,-55.2425,136.059,495.061)">
                <path d="M0.179,-0.327C0.189,-0.362 0.203,-0.393 0.233,-0.41C0.262,-0.427 0.296,-0.424 0.331,-0.415C0.37,-0.405 0.576,-0.352 0.728,-0.313C0.718,-0.276 0.708,-0.244 0.701,-0.219C0.692,-0.184 0.677,-0.153 0.648,-0.136C0.618,-0.119 0.584,-0.122 0.549,-0.131C0.51,-0.141 0.304,-0.193 0.152,-0.233C0.163,-0.269 0.172,-0.302 0.179,-0.327Z" style="fill:url(#_Linear3);fill-rule:nonzero;"/>
            </g>
        </g>
    </g>
    <defs>
        <linearGradient id="_Linear1" x1="0" y1="0" x2="1" y2="0" gradientUnits="userSpaceOnUse" gradientTransform="matrix(1,0,0,-1,0,-0.163343)"><stop offset="0" style="stop-color:rgb(255,105,8);stop-opacity:1"/><stop offset="0.05" style="stop-color:rgb(255,105,8);stop-opacity:1"/><stop offset="0.35" style="stop-color:rgb(228,72,67);stop-opacity:1"/><stop offset="0.73" style="stop-color:rgb(255,123,23);stop-opacity:1"/><stop offset="1" style="stop-color:rgb(255,123,23);stop-opacity:1"/></linearGradient>
        <linearGradient id="_Linear2" x1="0" y1="0" x2="1" y2="0" gradientUnits="userSpaceOnUse" gradientTransform="matrix(1,0,0,-1,0,0.152631)"><stop offset="0" style="stop-color:rgb(186,98,234);stop-opacity:1"/><stop offset="0.18" style="stop-color:rgb(186,98,234);stop-opacity:1"/><stop offset="0.36" style="stop-color:rgb(209,84,248);stop-opacity:1"/><stop offset="0.71" style="stop-color:rgb(74,18,113);stop-opacity:1"/><stop offset="0.93" style="stop-color:rgb(25,15,34);stop-opacity:1"/><stop offset="1" style="stop-color:rgb(25,15,34);stop-opacity:1"/></linearGradient>
        <linearGradient id="_Linear3" x1="0" y1="0" x2="1" y2="0" gradientUnits="userSpaceOnUse" gradientTransform="matrix(1,5.55112e-17,5.55112e-17,-1,0,-0.545869)"><stop offset="0" style="stop-color:rgb(40,21,59);stop-opacity:1"/><stop offset="0.11" style="stop-color:rgb(40,21,59);stop-opacity:1"/><stop offset="0.5" style="stop-color:rgb(181,42,195);stop-opacity:1"/><stop offset="0.85" style="stop-color:rgb(190,45,200);stop-opacity:1"/><stop offset="1" style="stop-color:rgb(190,45,200);stop-opacity:1"/></linearGradient>
    </defs>
</svg>
