<svg id="Capa_1" data-name="Capa 1" xmlns="http://www.w3.org/2000/svg" xmlns:xlink="http://www.w3.org/1999/xlink" viewBox="0 0 1715.96 606.32"><defs><style>.cls-1{fill:url(#Degradado_sin_nombre_2);}.cls-2{fill:#d42aff;}.cls-3{fill:#3c096c;}</style><linearGradient id="Degradado_sin_nombre_2" x1="1122.59" y1="843.51" x2="1123.59" y2="843.51" gradientTransform="matrix(-367.92, -637.26, -637.26, 367.92, 950995.82, 405746.92)" gradientUnits="userSpaceOnUse"><stop offset="0" stop-color="#ba62ea"/><stop offset="0.18" stop-color="#ba62ea"/><stop offset="0.36" stop-color="#d154f8"/><stop offset="0.71" stop-color="#4a1271"/><stop offset="0.93" stop-color="#190f22"/><stop offset="1" stop-color="#190f22"/></linearGradient></defs><g id="Capa_2" data-name="Capa 2"><path class="cls-1" d="M310.38,110.59l-1-.27h0c-22.73.37-46,8.69-63.51,23.92l1,.27-1.91,1.1-4.36,4.22C149.6,228,186,190.91,133.73,243.17,90.2,287,50,330.62,25.06,355.17,11.44,369.83.46,384.67.64,404.11l-.64.36c.18,19.44,11.29,34.27,25.68,48.9C50.62,478.92,251.14,683.49,254,686.92l1.74,1.55.37.63-.37-.63a98.84,98.84,0,0,0,68.94,28.17h0c26-.58,51.43-11,69.79-29.25a96.36,96.36,0,0,0,27.63-66.93l.27-1a98.17,98.17,0,0,0-25.67-65h0l-2.11-2.14L270.33,420.92s-8.52-10.38-8.66-18,9.6-15.74,9.6-15.74L378.66,275.92c19.36-18,29.38-43.3,29.81-69h0C408,154.51,364.81,110.62,310.38,110.59Z" transform="translate(0 -110.32)"/><path class="cls-2" d="M580.91,496q-38.45,0-60.45-21.85t-22-63.89V300.22h27.87v109q0,32.35,14.34,47.3t40.54,14.93q26.47,0,40.82-14.93t14.35-47.3v-109h27V410.3q0,42-21.87,63.89T580.91,496Z" transform="translate(0 -110.32)"/><path class="cls-2" d="M686.78,493.83,775.1,300.22h27.58l88.6,193.61H862L783.18,315.71h11.14L715.48,493.83Zm37.61-48.41,7.53-22.12H841.69l8.08,22.12Z" transform="translate(0 -110.32)"/><path class="cls-2" d="M920.25,493.83V300.22h87.49q33.71,0,51.82,13.41t18.11,36.65q0,15.77-7.1,26.55a46.9,46.9,0,0,1-19.09,16.59,58.5,58.5,0,0,1-25.91,5.81l5-8.29q16.73,0,29.54,5.8a47.76,47.76,0,0,1,20.34,17Q1088,425,1088,441.55q0,24.9-18.81,38.58t-55.86,13.7Zm27.87-22.41h64.08q23.11,0,35.38-7.74t12.26-24.34q0-16.87-12.26-24.62T1012.2,407H945.61V384.57h59.62q21.16,0,32.88-7.74t11.7-23.23q0-15.5-11.7-23.24t-32.88-7.74H948.12Z" transform="translate(0 -110.32)"/><path class="cls-3" d="M1122,547.48V345h41.52v30.43l-.84,44.25,2.79,44v83.8ZM1210.28,496q-18.66,0-32.87-8.3t-22.15-25.31q-7.93-17-7.94-43,0-26.26,7.52-43.14t21.87-25.17q14.36-8.3,33.57-8.3,21.45,0,38.31,9.54A70.54,70.54,0,0,1,1275.34,379q9.89,17.16,9.89,40.38,0,23.52-9.89,40.52a70.9,70.9,0,0,1-26.75,26.56Q1231.73,496,1210.28,496ZM1203,460.63a37.56,37.56,0,0,0,19.36-5,36.85,36.85,0,0,0,13.66-14.25q5.14-9.26,5.15-22,0-13-5.15-22.12a36.07,36.07,0,0,0-13.66-14,38.48,38.48,0,0,0-19.36-4.84,39.25,39.25,0,0,0-19.5,4.84,35.7,35.7,0,0,0-13.79,14q-5.16,9.12-5.16,22.12,0,12.74,5.16,22a36.46,36.46,0,0,0,13.79,14.25A38.3,38.3,0,0,0,1203,460.63Z" transform="translate(0 -110.32)"/><path class="cls-3" d="M1314.2,493.83V288.6h43.47V493.83Z" transform="translate(0 -110.32)"/><path class="cls-3" d="M1444.31,496q-17.28,0-29.81-6t-19.36-16.18a40.36,40.36,0,0,1-6.83-23,41.47,41.47,0,0,1,6.55-23.1q6.54-10.1,20.76-15.63T1453,406.7h39.56v24.89h-35.1q-15.33,0-21,5a15.83,15.83,0,0,0-5.71,12.45,15.48,15.48,0,0,0,6.55,13.14q6.54,4.83,17.69,4.84a39.64,39.64,0,0,0,19.92-5,27.26,27.26,0,0,0,12.4-15.21L1493.9,467a39.2,39.2,0,0,1-17.27,21.43Q1464.09,496.05,1444.31,496Zm45.69-2.21V464.78l-2.78-6.36v-52q0-13.82-8.5-21.57t-26-7.74a76.07,76.07,0,0,0-23.54,3.73,66.14,66.14,0,0,0-19.92,10.1l-15.33-30.15q12.25-8.85,29.54-13.42a136.88,136.88,0,0,1,35.1-4.56q34.27,0,53.22,16t18.94,50.06v84.92Z" transform="translate(0 -110.32)"/><path class="cls-3" d="M1586.12,549.7a75.87,75.87,0,0,1-22.84-3.6,54.22,54.22,0,0,1-19-10l15.88-31a35,35,0,0,0,11.57,7.19,36.92,36.92,0,0,0,13.23,2.49q8.91,0,14.35-4.29t9.89-14.25l7.8-18.25,3.34-4.7,54-128.34H1716L1648.25,503q-7.24,18.26-16.57,28.35a53.15,53.15,0,0,1-20.62,14.25A71.94,71.94,0,0,1,1586.12,549.7Zm25.64-50.07L1545.17,345h44.58l52.1,124.74Z" transform="translate(0 -110.32)"/></g></svg>