<svg id="Capa_1" data-name="Capa 1" xmlns="http://www.w3.org/2000/svg" xmlns:xlink="http://www.w3.org/1999/xlink" viewBox="0 0 1815.56 606.46"><defs><style>.cls-1{fill:url(#Degradado_sin_nombre_6);}.cls-2{fill:#ff6d3e;}.cls-3{fill:#ff4c3e;}</style><linearGradient id="Degradado_sin_nombre_6" x1="3887.48" y1="-239.27" x2="3888.48" y2="-239.27" gradientTransform="translate(2231404.05 878220.85) rotate(-155) scale(615.53)" gradientUnits="userSpaceOnUse"><stop offset="0" stop-color="#ff6908"/><stop offset="0.05" stop-color="#ff6908"/><stop offset="0.35" stop-color="#e44843"/><stop offset="0.73" stop-color="#ff7b17"/><stop offset="1" stop-color="#ff7b17"/></linearGradient></defs><g id="Capa_2" data-name="Capa 2"><path class="cls-1" d="M279.45,52.94l-.26.55C253.57,53.09,227.43,64,210,82.37a95.65,95.65,0,0,0-27.88,67.09l-.26.6a98.48,98.48,0,0,0,25.46,64.8h0l1.71,2.2h0l.56.27,124.2,131.26s8.26,10,7.92,18c.49,7.7-8.66,15.66-8.66,15.66L225.66,493.06a95.18,95.18,0,0,0-29.77,69.6h0c0,52.32,43.39,96.3,97.09,96.21l1.11.53h0c23.39-.64,46.3-9,63.51-24l-.56-.26c.82-.3,1.38,0,1.64-.6l4.83-4.53c90.67-88.12,54.5-51.35,106.21-104,44-43.34,83.83-86.56,109-111.49,14.17-14.46,25.06-30.46,25.09-49.46s-11.13-34.39-25.3-49.13c-24.62-25.7-225.43-230-228.26-232.73l-1.7-2.14-.56-.25h0A102.18,102.18,0,0,0,279.45,52.94Z" transform="translate(-181.89 -52.94)"/></g><path class="cls-2" d="M762.13,439q-36.95,0-58.17-21.22T682.73,355V244.4h20.4V354.13q0,34.19,15.44,50.44t43.56,16.27q28.38,0,43.83-16.27t15.44-50.44V244.4h19.85V355q0,41.64-21.09,62.86T762.13,439Z" transform="translate(-181.89 -52.94)"/><path class="cls-2" d="M867.71,437.38l88.22-193h20.12l88.22,193h-21.5l-81-181.12H970l-81,181.12Zm34.73-51.55,6.07-16.54h112.2l6.07,16.54Z" transform="translate(-181.89 -52.94)"/><path class="cls-2" d="M1096.25,437.38v-193h83.25q32.26,0,50,13T1247.32,294q0,15.71-7.31,26.46a45.56,45.56,0,0,1-19.85,16.27,67.3,67.3,0,0,1-27.42,5.51l4.68-6.62q18.46,0,31.84,5.66a45.69,45.69,0,0,1,20.82,16.81q7.44,11.17,7.44,27.71,0,24.54-18.06,38T1185,437.38Zm20.4-16.82h68.09q25.37,0,38.87-8.68t13.51-27.71q0-18.74-13.51-27.43t-38.87-8.68h-70.3V331.24h63.68q23.16,0,36-8.82t12.82-26.19q0-17.64-12.82-26.33t-36-8.68h-61.47Z" transform="translate(-181.89 -52.94)"/><path class="cls-3" d="M1292.53,437.38V289.06h41.08v42.18l-5.79-12.4A47.6,47.6,0,0,1,1349.05,295q14.6-8.13,35.56-8.13v40c-1.66-.36-3.27-.64-4.83-.83a39.7,39.7,0,0,0-4.54-.27q-18.2,0-29,10.2t-10.75,31.43v70Z" transform="translate(-181.89 -52.94)"/><path class="cls-3" d="M1446.37,439.59q-17.1,0-29.5-5.93a46.19,46.19,0,0,1-19.16-16.13,40.48,40.48,0,0,1-6.76-22.88,41.58,41.58,0,0,1,6.48-23q6.48-10.06,20.54-15.58t36.94-5.51h39.15v24.81h-34.74q-15.16,0-20.81,5a15.83,15.83,0,0,0-5.65,12.41,15.45,15.45,0,0,0,6.48,13.09q6.47,4.83,17.5,4.83a39.1,39.1,0,0,0,19.71-5,27.09,27.09,0,0,0,12.27-15.17l6.62,20.13A39,39,0,0,1,1478.35,432Q1465.95,439.59,1446.37,439.59Zm45.21-2.21V408.43l-2.76-6.34V350.26q0-13.77-8.41-21.5T1454.64,321a74.9,74.9,0,0,0-23.3,3.72,65.11,65.11,0,0,0-19.71,10.07l-15.16-30.05q12.12-8.82,29.22-13.37a134.14,134.14,0,0,1,34.74-4.55q33.9,0,52.65,16t18.75,49.9v84.63ZM1456.29,270l-49.62-39.7h46l37.21,39.7Z" transform="translate(-181.89 -52.94)"/><path class="cls-3" d="M1635.48,439.59q-21,0-37.77-9.52a68.75,68.75,0,0,1-26.46-26.6q-9.66-17.09-9.65-40.25t9.65-40.25a68.81,68.81,0,0,1,26.46-26.6q16.82-9.51,37.77-9.51,18.75,0,32.81,8.27t21.78,25.08q7.71,16.83,7.72,43,0,25.92-7.45,43T1669,431.45Q1655,439.6,1635.48,439.59Zm7.17-35.29a38.54,38.54,0,0,0,19.3-4.83,35.05,35.05,0,0,0,13.64-14.19q5.1-9.37,5.1-22.06,0-13-5.1-22.05A35.57,35.57,0,0,0,1662,327.24a38.64,38.64,0,0,0-19.3-4.82,38,38,0,0,0-19,4.82A35.53,35.53,0,0,0,1610,341.17q-5.1,9.09-5.1,22.05,0,12.69,5.1,22.06a35,35,0,0,0,13.65,14.19A37.94,37.94,0,0,0,1642.65,404.3Zm39.15,33.08V407.06l.82-44.11-2.75-43.84V232.82h43V437.38Z" transform="translate(-181.89 -52.94)"/><path class="cls-3" d="M1784.07,268.39q-12.13,0-19.57-6.9a23.33,23.33,0,0,1,0-34.18q7.44-6.88,19.57-6.89,11.85,0,19.44,6.47a21,21,0,0,1,7.58,16.68,23.44,23.44,0,0,1-7.44,17.79Q1796.2,268.38,1784.07,268.39Zm-21.5,169V289.06h43V437.38Z" transform="translate(-181.89 -52.94)"/><path class="cls-3" d="M1915.85,439.59q-23.44,0-41.77-9.93a74.59,74.59,0,0,1-28.81-27.15q-10.49-17.24-10.47-39.29,0-22.34,10.47-39.56a73.62,73.62,0,0,1,28.81-27q18.33-9.78,41.77-9.78,23.7,0,42.18,9.78a73.37,73.37,0,0,1,28.94,27q10.48,17.23,10.48,39.56T1987,402.64a74.6,74.6,0,0,1-28.94,27Q1939.55,439.59,1915.85,439.59Zm0-35.29a38.32,38.32,0,0,0,19.43-4.83,35.28,35.28,0,0,0,13.51-14.19q5.1-9.37,5.1-22.06,0-13-5.1-22.05a35.81,35.81,0,0,0-13.51-13.93,37.87,37.87,0,0,0-19.16-4.82,38.57,38.57,0,0,0-19.29,4.82,35.53,35.53,0,0,0-13.65,13.93q-5.1,9.09-5.1,22.05,0,12.69,5.1,22.06a35,35,0,0,0,13.65,14.19A37.94,37.94,0,0,0,1915.85,404.3Z" transform="translate(-181.89 -52.94)"/></svg>