<?xml version="1.0" encoding="UTF-8" standalone="no"?>
<!DOCTYPE svg PUBLIC "-//W3C//DTD SVG 1.1//EN" "http://www.w3.org/Graphics/SVG/1.1/DTD/svg11.dtd">
<svg width="100%" height="100%" viewBox="0 0 1594 500" version="1.1" xmlns="http://www.w3.org/2000/svg" xmlns:xlink="http://www.w3.org/1999/xlink" xml:space="preserve" xmlns:serif="http://www.serif.com/" style="fill-rule:evenodd;clip-rule:evenodd;stroke-linejoin:round;stroke-miterlimit:2;">
    <g transform="matrix(1,0,0,1,-115.071,-89.3125)">
        <g transform="matrix(4.16667,0,0,4.16667,0,0)">
            <g transform="matrix(1,0,0,1,148.757,42.4329)">
                <path d="M0,34.879C-4.387,34.879 -7.793,33.609 -10.217,31.069C-12.641,28.53 -13.853,24.819 -13.853,19.938L-13.853,0L-11.33,0L-11.33,19.839C-11.33,24.094 -10.356,27.276 -8.41,29.387C-6.465,31.498 -3.645,32.554 0.05,32.554C3.71,32.554 6.515,31.498 8.46,29.387C10.406,27.276 11.38,24.094 11.38,19.839L11.38,0L13.902,0L13.902,19.938C13.902,24.819 12.682,28.53 10.241,31.069C7.801,33.609 4.387,34.879 0,34.879" style="fill:white;fill-rule:nonzero;"/>
            </g>
        </g>
        <g transform="matrix(4.16667,0,0,4.16667,0,0)">
            <g transform="matrix(1,0,0,1,194.174,54.3068)">
                <path d="M0,10.884L-9.103,-9.104L-18.156,10.884L0,10.884ZM0.94,13.011L-19.146,13.011L-23.55,22.758L-26.271,22.758L-10.34,-11.874L-7.816,-11.874L8.114,22.758L5.394,22.758L0.94,13.011Z" style="fill:white;fill-rule:nonzero;"/>
            </g>
        </g>
        <g transform="matrix(4.16667,0,0,4.16667,0,0)">
            <g transform="matrix(1,0,0,1,224.007,44.61)">
                <path d="M0,30.278C3.364,30.278 5.912,29.692 7.645,28.521C9.375,27.351 10.241,25.545 10.241,23.104C10.241,20.663 9.375,18.866 7.645,17.711C5.912,16.557 3.364,15.98 0,15.98L-12.913,15.98L-12.913,30.278L0,30.278ZM-12.913,0L-12.913,13.803L-1.089,13.803C1.946,13.803 4.279,13.217 5.912,12.047C7.545,10.876 8.361,9.152 8.361,6.876C8.361,4.634 7.545,2.927 5.912,1.756C4.279,0.585 1.946,0 -1.089,0L-12.913,0ZM5.146,14.594C7.619,15.056 9.508,16.029 10.811,17.513C12.113,18.998 12.765,20.927 12.765,23.302C12.765,26.237 11.692,28.497 9.549,30.08C7.404,31.663 4.223,32.455 0,32.455L-15.436,32.455L-15.436,-2.177L-0.989,-2.177C2.771,-2.177 5.698,-1.41 7.792,0.123C9.887,1.657 10.935,3.842 10.935,6.679C10.935,8.658 10.414,10.323 9.375,11.675C8.336,13.028 6.927,14.001 5.146,14.594" style="fill:white;fill-rule:nonzero;"/>
            </g>
        </g>
        <g transform="matrix(4.16667,0,0,4.16667,0,0)">
            <g transform="matrix(1,0,0,1,253.884,72.0091)">
                <path d="M0,-24.832C1.194,-26.496 2.806,-27.755 4.832,-28.608C6.858,-29.462 9.194,-29.888 11.841,-29.888L11.841,-20.672C10.73,-20.758 9.984,-20.8 9.601,-20.8C6.741,-20.8 4.501,-20 2.881,-18.4C1.259,-16.8 0.448,-14.4 0.448,-11.2L0.448,5.056L-9.535,5.056L-9.535,-29.376L0,-29.376L0,-24.832Z" style="fill:white;fill-rule:nonzero;"/>
            </g>
        </g>
        <g transform="matrix(4.16667,0,0,4.16667,0,0)">
            <g transform="matrix(1,0,0,1,272.829,77.5768)">
                <path d="M0,-48.576L10.752,-48.576L19.393,-39.36L11.584,-39.36L0,-48.576ZM11.776,-6.72C13.482,-6.72 14.997,-7.115 16.32,-7.904C17.642,-8.694 18.581,-9.856 19.136,-11.392L19.136,-14.912L12.288,-14.912C8.192,-14.912 6.145,-13.568 6.145,-10.88C6.145,-9.6 6.646,-8.587 7.648,-7.84C8.65,-7.094 10.026,-6.72 11.776,-6.72M12.544,-35.456C17.877,-35.456 21.973,-34.187 24.832,-31.648C27.69,-29.11 29.12,-25.28 29.12,-20.16L29.12,-0.512L19.776,-0.512L19.776,-4.8C17.898,-1.6 14.4,0 9.28,0C6.634,0 4.341,-0.448 2.4,-1.344C0.458,-2.24 -1.023,-3.478 -2.048,-5.056C-3.072,-6.635 -3.584,-8.427 -3.584,-10.432C-3.584,-13.632 -2.379,-16.15 0.032,-17.984C2.442,-19.819 6.165,-20.736 11.2,-20.736L19.136,-20.736C19.136,-22.912 18.475,-24.587 17.152,-25.76C15.829,-26.934 13.845,-27.52 11.2,-27.52C9.365,-27.52 7.562,-27.232 5.792,-26.656C4.021,-26.08 2.518,-25.302 1.28,-24.32L-2.304,-31.296C-0.427,-32.619 1.824,-33.643 4.448,-34.368C7.072,-35.094 9.771,-35.456 12.544,-35.456" style="fill:white;fill-rule:nonzero;"/>
            </g>
        </g>
        <g transform="matrix(4.16667,0,0,4.16667,0,0)">
            <g transform="matrix(1,0,0,1,327.869,37.7691)">
                <path d="M0,31.616C2.517,31.616 4.608,30.752 6.272,29.024C7.937,27.296 8.768,24.981 8.768,22.08C8.768,19.178 7.937,16.864 6.272,15.136C4.608,13.408 2.517,12.544 0,12.544C-2.56,12.544 -4.672,13.408 -6.336,15.136C-8,16.864 -8.832,19.178 -8.832,22.08C-8.832,24.981 -8,27.296 -6.336,29.024C-4.672,30.752 -2.56,31.616 0,31.616M18.561,-8.192L18.561,39.296L9.024,39.296L9.024,35.328C6.549,38.314 2.965,39.808 -1.728,39.808C-4.971,39.808 -7.904,39.082 -10.528,37.632C-13.152,36.181 -15.211,34.112 -16.704,31.424C-18.198,28.736 -18.944,25.621 -18.944,22.08C-18.944,18.538 -18.198,15.424 -16.704,12.736C-15.211,10.048 -13.152,7.978 -10.528,6.528C-7.904,5.077 -4.971,4.352 -1.728,4.352C2.666,4.352 6.101,5.738 8.576,8.512L8.576,-8.192L18.561,-8.192Z" style="fill:white;fill-rule:nonzero;"/>
            </g>
        </g>
        <g transform="matrix(4.16667,0,0,4.16667,0,0)">
            <g transform="matrix(1,0,0,1,360.637,65.9289)">
                <path d="M0,-28.096C-1.836,-28.096 -3.328,-28.63 -4.48,-29.696C-5.633,-30.763 -6.208,-32.086 -6.208,-33.664C-6.208,-35.243 -5.633,-36.566 -4.48,-37.632C-3.328,-38.699 -1.836,-39.232 0,-39.232C1.834,-39.232 3.327,-38.72 4.479,-37.696C5.632,-36.672 6.208,-35.392 6.208,-33.856C6.208,-32.192 5.632,-30.816 4.479,-29.728C3.327,-28.64 1.834,-28.096 0,-28.096M-4.992,-23.296L4.991,-23.296L4.991,11.136L-4.992,11.136L-4.992,-23.296Z" style="fill:white;fill-rule:nonzero;"/>
            </g>
        </g>
        <g transform="matrix(4.16667,0,0,4.16667,0,0)">
            <g transform="matrix(1,0,0,1,391.293,50.3131)">
                <path d="M0,19.072C2.561,19.072 4.661,18.208 6.305,16.48C7.946,14.752 8.769,12.437 8.769,9.536C8.769,6.634 7.946,4.32 6.305,2.592C4.661,0.864 2.561,0 0,0C-2.56,0 -4.672,0.864 -6.336,2.592C-8,4.32 -8.832,6.634 -8.832,9.536C-8.832,12.437 -8,14.752 -6.336,16.48C-4.672,18.208 -2.56,19.072 0,19.072M0,27.264C-3.627,27.264 -6.88,26.506 -9.76,24.992C-12.64,23.477 -14.891,21.376 -16.512,18.688C-18.134,16 -18.943,12.949 -18.943,9.536C-18.943,6.122 -18.134,3.072 -16.512,0.384C-14.891,-2.304 -12.64,-4.406 -9.76,-5.92C-6.88,-7.435 -3.627,-8.192 0,-8.192C3.626,-8.192 6.869,-7.435 9.729,-5.92C12.586,-4.406 14.826,-2.304 16.448,0.384C18.069,3.072 18.88,6.122 18.88,9.536C18.88,12.949 18.069,16 16.448,18.688C14.826,21.376 12.586,23.477 9.729,24.992C6.869,26.506 3.626,27.264 0,27.264" style="fill:white;fill-rule:nonzero;"/>
            </g>
        </g>
        <g transform="matrix(4.16667,0,0,4.16667,0,0)">
            <g transform="matrix(1,0,0,1,214.819,123.364)">
                <path d="M0,-34.3L0,0L-7.938,0L-7.938,-27.93L-14.798,-27.93L-14.798,-34.3L0,-34.3Z" style="fill:white;fill-rule:nonzero;"/>
            </g>
        </g>
        <g transform="matrix(4.16667,0,0,4.16667,0,0)">
            <g transform="matrix(1,0,0,1,235.497,95.1891)">
                <path d="M0,22.05C2.091,22.05 3.732,21.152 4.924,19.355C6.117,17.558 6.713,14.782 6.713,11.025C6.713,7.268 6.117,4.492 4.924,2.695C3.732,0.898 2.091,-0 0,-0C-2.058,-0 -3.683,0.898 -4.876,2.695C-6.067,4.492 -6.664,7.268 -6.664,11.025C-6.664,14.782 -6.067,17.558 -4.876,19.355C-3.683,21.152 -2.058,22.05 0,22.05M0,28.763C-2.842,28.763 -5.374,28.061 -7.595,26.656C-9.815,25.251 -11.556,23.218 -12.813,20.555C-14.071,17.893 -14.7,14.716 -14.7,11.025C-14.7,7.334 -14.071,4.157 -12.813,1.494C-11.556,-1.168 -9.815,-3.201 -7.595,-4.606C-5.374,-6.011 -2.842,-6.713 0,-6.713C2.842,-6.713 5.374,-6.011 7.595,-4.606C9.816,-3.201 11.556,-1.168 12.813,1.494C14.071,4.157 14.7,7.334 14.7,11.025C14.7,14.716 14.071,17.893 12.813,20.555C11.556,23.218 9.816,25.251 7.595,26.656C5.374,28.061 2.842,28.763 0,28.763" style="fill:white;fill-rule:nonzero;"/>
            </g>
        </g>
        <g transform="matrix(4.16667,0,0,4.16667,0,0)">
            <g transform="matrix(1,0,0,1,268.768,95.1891)">
                <path d="M0,22.05C2.091,22.05 3.731,21.152 4.924,19.355C6.116,17.558 6.713,14.782 6.713,11.025C6.713,7.268 6.116,4.492 4.924,2.695C3.731,0.898 2.091,-0 0,-0C-2.059,-0 -3.684,0.898 -4.876,2.695C-6.068,4.492 -6.664,7.268 -6.664,11.025C-6.664,14.782 -6.068,17.558 -4.876,19.355C-3.684,21.152 -2.059,22.05 0,22.05M0,28.763C-2.843,28.763 -5.374,28.061 -7.596,26.656C-9.816,25.251 -11.557,23.218 -12.814,20.555C-14.071,17.893 -14.7,14.716 -14.7,11.025C-14.7,7.334 -14.071,4.157 -12.814,1.494C-11.557,-1.168 -9.816,-3.201 -7.596,-4.606C-5.374,-6.011 -2.843,-6.713 0,-6.713C2.842,-6.713 5.374,-6.011 7.595,-4.606C9.815,-3.201 11.556,-1.168 12.813,1.494C14.07,4.157 14.699,7.334 14.699,11.025C14.699,14.716 14.07,17.893 12.813,20.555C11.556,23.218 9.815,25.251 7.595,26.656C5.374,28.061 2.842,28.763 0,28.763" style="fill:white;fill-rule:nonzero;"/>
            </g>
        </g>
        <g transform="matrix(4.16667,0,0,4.16667,0,0)">
            <g transform="matrix(1,0,0,1,291.21,114.25)">
                <path d="M0,9.506C-1.339,9.506 -2.466,9.049 -3.381,8.134C-4.296,7.219 -4.753,6.076 -4.753,4.704C-4.753,3.299 -4.296,2.164 -3.381,1.298C-2.466,0.433 -1.339,0 0,0C1.339,0 2.466,0.433 3.381,1.298C4.296,2.164 4.753,3.299 4.753,4.704C4.753,6.076 4.296,7.219 3.381,8.134C2.466,9.049 1.339,9.506 0,9.506" style="fill:white;fill-rule:nonzero;"/>
            </g>
        </g>
        <g transform="matrix(4.16667,0,0,4.16667,0,0)">
            <g transform="matrix(1,0,0,1,316.052,109.987)">
                <path d="M0,-6.958C3.006,-6.468 5.309,-5.349 6.909,-3.602C8.511,-1.854 9.311,0.31 9.311,2.891C9.311,4.884 8.787,6.721 7.742,8.403C6.697,10.086 5.104,11.433 2.965,12.446C0.825,13.459 -1.797,13.965 -4.899,13.965C-7.316,13.965 -9.693,13.646 -12.029,13.009C-14.364,12.372 -16.35,11.466 -17.982,10.29L-14.896,4.214C-13.589,5.194 -12.078,5.953 -10.363,6.492C-8.648,7.031 -6.893,7.301 -5.096,7.301C-3.103,7.301 -1.534,6.917 -0.392,6.149C0.752,5.382 1.323,4.296 1.323,2.891C1.323,0.082 -0.816,-1.323 -5.096,-1.323L-8.722,-1.323L-8.722,-6.566L-1.666,-14.553L-16.268,-14.553L-16.268,-20.923L7.742,-20.923L7.742,-15.778L0,-6.958Z" style="fill:white;fill-rule:nonzero;"/>
            </g>
        </g>
        <g transform="matrix(4.16667,0,0,4.16667,0,0)">
            <g transform="matrix(1,0,0,1,335.604,121.11)">
                <path d="M0,-29.792L0,-15.141L18.276,-15.141L18.276,-12.887L0,-12.887L0,2.254L-2.499,2.254L-2.499,-32.046L20.433,-32.046L20.433,-29.792L0,-29.792Z" style="fill:white;fill-rule:nonzero;"/>
            </g>
        </g>
        <g transform="matrix(4.16667,0,0,4.16667,0,0)">
            <g transform="matrix(1,0,0,1,396.462,89.0641)">
                <path d="M0,34.3L-0.049,4.949L-14.405,29.743L-15.631,29.743L-29.987,5.047L-29.987,34.3L-32.438,34.3L-32.438,0L-30.331,0L-14.994,26.509L0.344,0L2.401,0L2.45,34.3L0,34.3Z" style="fill:white;fill-rule:nonzero;"/>
            </g>
        </g>
        <g transform="matrix(4.16667,0,0,4.16667,0,0)">
            <g transform="matrix(-110.434,-51.4962,-51.4962,110.434,83.3699,109.909)">
                <path d="M0.578,-0.532L0.578,-0.531C0.616,-0.514 0.647,-0.48 0.66,-0.441C0.674,-0.403 0.672,-0.359 0.655,-0.323L0.655,-0.322C0.638,-0.287 0.609,-0.259 0.573,-0.244C0.573,-0.244 0.573,-0.244 0.573,-0.244C0.573,-0.244 0.573,-0.244 0.573,-0.244L0.569,-0.242L0.569,-0.242C0.568,-0.242 0.568,-0.242 0.568,-0.242L0.295,-0.134C0.295,-0.134 0.276,-0.125 0.271,-0.113C0.265,-0.102 0.273,-0.084 0.273,-0.084L0.355,0.153C0.371,0.194 0.369,0.238 0.351,0.276L0.351,0.276C0.315,0.353 0.221,0.388 0.142,0.351L0.14,0.351L0.14,0.351C0.106,0.334 0.078,0.306 0.063,0.272L0.064,0.272C0.063,0.271 0.062,0.271 0.062,0.27L0.058,0.26C-0.015,0.068 0.013,0.147 -0.027,0.034C-0.061,-0.06 -0.091,-0.151 -0.111,-0.205C-0.122,-0.236 -0.127,-0.267 -0.114,-0.295C-0.101,-0.323 -0.074,-0.338 -0.043,-0.35C0.011,-0.371 0.447,-0.534 0.453,-0.536L0.457,-0.538C0.457,-0.538 0.458,-0.538 0.458,-0.538L0.458,-0.538C0.496,-0.551 0.54,-0.549 0.578,-0.532Z" style="fill:url(#_Linear1);fill-rule:nonzero;"/>
            </g>
        </g>
    </g>
    <defs>
        <linearGradient id="_Linear1" x1="0" y1="0" x2="1" y2="0" gradientUnits="userSpaceOnUse" gradientTransform="matrix(1,0,0,-1,0,-0.163337)"><stop offset="0" style="stop-color:rgb(255,105,8);stop-opacity:1"/><stop offset="0.05" style="stop-color:rgb(255,105,8);stop-opacity:1"/><stop offset="0.35" style="stop-color:rgb(228,72,67);stop-opacity:1"/><stop offset="0.73" style="stop-color:rgb(255,123,23);stop-opacity:1"/><stop offset="1" style="stop-color:rgb(255,123,23);stop-opacity:1"/></linearGradient>
    </defs>
</svg>
