<?xml version="1.0" encoding="UTF-8" standalone="no"?>
<!DOCTYPE svg PUBLIC "-//W3C//DTD SVG 1.1//EN" "http://www.w3.org/Graphics/SVG/1.1/DTD/svg11.dtd">
<svg width="100%" height="100%" viewBox="0 0 1151 500" version="1.1" xmlns="http://www.w3.org/2000/svg" xmlns:xlink="http://www.w3.org/1999/xlink" xml:space="preserve" xmlns:serif="http://www.serif.com/" style="fill-rule:evenodd;clip-rule:evenodd;stroke-linejoin:round;stroke-miterlimit:2;">
    <g transform="matrix(1,0,0,1,-467.066,-837.133)">
        <g transform="matrix(4.16667,0,0,4.16667,0,0)">
            <g transform="matrix(1,0,0,1,201.2,245.167)">
                <path d="M0,30.031C3.364,30.031 5.913,29.445 7.644,28.274C9.376,27.103 10.241,25.298 10.241,22.857C10.241,20.416 9.376,18.619 7.644,17.464C5.913,16.31 3.364,15.733 0,15.733L-12.912,15.733L-12.912,30.031L0,30.031ZM-12.912,-0.248L-12.912,13.556L-1.088,13.556C1.945,13.556 4.279,12.97 5.913,11.799C7.545,10.629 8.361,8.905 8.361,6.629C8.361,4.387 7.545,2.68 5.913,1.509C4.279,0.338 1.945,-0.248 -1.088,-0.248L-12.912,-0.248ZM5.146,14.347C7.619,14.809 9.508,15.782 10.81,17.266C12.112,18.751 12.765,20.68 12.765,23.055C12.765,25.99 11.692,28.25 9.549,29.833C7.404,31.416 4.222,32.208 0,32.208L-15.437,32.208L-15.437,-2.424L-0.989,-2.424C2.771,-2.424 5.697,-1.658 7.793,-0.124C9.887,1.41 10.934,3.595 10.934,6.432C10.934,8.41 10.415,10.076 9.376,11.428C8.337,12.781 6.927,13.754 5.146,14.347M-29.833,20.334L-38.937,0.346L-47.99,20.334L-29.833,20.334ZM-28.894,22.461L-48.979,22.461L-53.383,32.208L-56.104,32.208L-40.174,-2.424L-37.649,-2.424L-21.72,32.208L-24.44,32.208L-28.894,22.461ZM-75.25,32.455C-79.638,32.455 -83.042,31.185 -85.467,28.645C-87.892,26.106 -89.104,22.395 -89.104,17.514L-89.104,-2.424L-86.579,-2.424L-86.579,17.415C-86.579,21.67 -85.606,24.852 -83.661,26.963C-81.716,29.074 -78.895,30.13 -75.2,30.13C-71.539,30.13 -68.736,29.074 -66.79,26.963C-64.845,24.852 -63.871,21.67 -63.871,17.415L-63.871,-2.424L-61.349,-2.424L-61.349,17.514C-61.349,22.395 -62.568,26.106 -65.01,28.645C-67.449,31.185 -70.863,32.455 -75.25,32.455" style="fill:white;fill-rule:nonzero;"/>
            </g>
        </g>
        <g transform="matrix(4.16667,0,0,4.16667,0,0)">
            <g transform="matrix(1,0,0,1,282.917,270.271)">
                <path d="M0,-27.328L-14.528,7.104L-24.832,7.104L-39.296,-27.328L-28.992,-27.328L-19.456,-3.904L-9.601,-27.328L0,-27.328ZM-39.168,5.44C-40.149,6.165 -41.354,6.709 -42.784,7.072C-44.213,7.434 -45.717,7.616 -47.296,7.616C-51.393,7.616 -54.561,6.57 -56.8,4.48C-59.04,2.389 -60.16,-0.683 -60.16,-4.736L-60.16,-18.88L-65.472,-18.88L-65.472,-26.56L-60.16,-26.56L-60.16,-34.944L-50.176,-34.944L-50.176,-26.56L-41.601,-26.56L-41.601,-18.88L-50.176,-18.88L-50.176,-4.864C-50.176,-3.414 -49.802,-2.294 -49.056,-1.504C-48.31,-0.715 -47.253,-0.32 -45.888,-0.32C-44.31,-0.32 -42.965,-0.747 -41.856,-1.6L-39.168,5.44Z" style="fill:white;fill-rule:nonzero;"/>
            </g>
        </g>
        <g transform="matrix(4.16667,0,0,4.16667,0,0)">
            <g transform="matrix(-72.833,-126.151,-126.151,72.833,402.206,312.859)">
                <path d="M0.789,-0.17L0.79,-0.169L0.79,-0.169C0.805,-0.142 0.811,-0.109 0.805,-0.078L0.804,-0.079C0.804,-0.078 0.804,-0.077 0.804,-0.076L0.802,-0.068C0.76,0.099 0.779,0.031 0.753,0.128C0.731,0.209 0.707,0.286 0.695,0.332C0.687,0.358 0.677,0.381 0.655,0.394L0.654,0.395C0.631,0.408 0.606,0.405 0.579,0.398C0.532,0.386 0.155,0.289 0.149,0.288L0.146,0.287C0.146,0.287 0.146,0.287 0.145,0.287L0.146,0.287C0.113,0.278 0.084,0.255 0.066,0.225L0.066,0.225C0.049,0.194 0.044,0.157 0.053,0.123C0.062,0.09 0.084,0.062 0.113,0.045L0.114,0.044C0.142,0.028 0.176,0.023 0.208,0.03C0.208,0.03 0.208,0.03 0.208,0.03C0.208,0.03 0.208,0.03 0.208,0.03L0.211,0.031L0.212,0.031C0.212,0.031 0.212,0.031 0.212,0.031L0.451,0.088C0.451,0.088 0.469,0.091 0.478,0.086C0.487,0.081 0.49,0.064 0.49,0.064L0.548,-0.138C0.556,-0.173 0.579,-0.202 0.609,-0.22L0.609,-0.22C0.671,-0.255 0.752,-0.234 0.789,-0.17Z" style="fill:url(#_Linear1);fill-rule:nonzero;"/>
            </g>
        </g>
    </g>
    <defs>
        <linearGradient id="_Linear1" x1="0" y1="0" x2="1" y2="0" gradientUnits="userSpaceOnUse" gradientTransform="matrix(1,0,0,-1,0,0.152627)"><stop offset="0" style="stop-color:rgb(186,98,234);stop-opacity:1"/><stop offset="0.18" style="stop-color:rgb(186,98,234);stop-opacity:1"/><stop offset="0.36" style="stop-color:rgb(209,84,248);stop-opacity:1"/><stop offset="0.71" style="stop-color:rgb(74,18,113);stop-opacity:1"/><stop offset="0.93" style="stop-color:rgb(25,15,34);stop-opacity:1"/><stop offset="1" style="stop-color:rgb(25,15,34);stop-opacity:1"/></linearGradient>
    </defs>
</svg>
