<?xml version="1.0" encoding="UTF-8" standalone="no"?>
<!DOCTYPE svg PUBLIC "-//W3C//DTD SVG 1.1//EN" "http://www.w3.org/Graphics/SVG/1.1/DTD/svg11.dtd">
<svg width="100%" height="100%" viewBox="0 0 349 500" version="1.1" xmlns="http://www.w3.org/2000/svg" xmlns:xlink="http://www.w3.org/1999/xlink" xml:space="preserve" xmlns:serif="http://www.serif.com/" style="fill-rule:evenodd;clip-rule:evenodd;stroke-linejoin:round;stroke-miterlimit:2;">
    <g transform="matrix(1,0,0,1,-1269.89,-837.133)">
        <g transform="matrix(4.16667,0,0,4.16667,0,0)">
            <g transform="matrix(-72.833,-126.151,-126.151,72.833,402.206,312.859)">
                <path d="M0.789,-0.17L0.79,-0.169L0.79,-0.169C0.805,-0.142 0.811,-0.109 0.805,-0.078L0.804,-0.079C0.804,-0.078 0.804,-0.077 0.804,-0.076L0.802,-0.068C0.76,0.099 0.779,0.031 0.753,0.128C0.731,0.209 0.707,0.286 0.695,0.332C0.687,0.358 0.677,0.381 0.655,0.394L0.654,0.395C0.631,0.408 0.606,0.405 0.579,0.398C0.532,0.386 0.155,0.289 0.149,0.288L0.146,0.287C0.146,0.287 0.146,0.287 0.145,0.287L0.146,0.287C0.113,0.278 0.084,0.255 0.066,0.225L0.066,0.225C0.049,0.194 0.044,0.157 0.053,0.123C0.062,0.09 0.084,0.062 0.113,0.045L0.114,0.044C0.142,0.028 0.176,0.023 0.208,0.03C0.208,0.03 0.208,0.03 0.208,0.03C0.208,0.03 0.208,0.03 0.208,0.03L0.211,0.031L0.212,0.031C0.212,0.031 0.212,0.031 0.212,0.031L0.451,0.088C0.451,0.088 0.469,0.091 0.478,0.086C0.487,0.081 0.49,0.064 0.49,0.064L0.548,-0.138C0.556,-0.173 0.579,-0.202 0.609,-0.22L0.609,-0.22C0.671,-0.255 0.752,-0.234 0.789,-0.17Z" style="fill:url(#_Linear1);fill-rule:nonzero;"/>
            </g>
        </g>
    </g>
    <defs>
        <linearGradient id="_Linear1" x1="0" y1="0" x2="1" y2="0" gradientUnits="userSpaceOnUse" gradientTransform="matrix(1,0,0,-1,0,0.152627)"><stop offset="0" style="stop-color:rgb(186,98,234);stop-opacity:1"/><stop offset="0.18" style="stop-color:rgb(186,98,234);stop-opacity:1"/><stop offset="0.36" style="stop-color:rgb(209,84,248);stop-opacity:1"/><stop offset="0.71" style="stop-color:rgb(74,18,113);stop-opacity:1"/><stop offset="0.93" style="stop-color:rgb(25,15,34);stop-opacity:1"/><stop offset="1" style="stop-color:rgb(25,15,34);stop-opacity:1"/></linearGradient>
    </defs>
</svg>
